;TYPE=PLATED
;Layer: PTH_Through_Via
;EasyEDA Pro Client v2.2.43.4, 2025-12-14 11:37:12
;Gerber Generator version 0.3
M48
METRIC,LZ,0000.00000
;Hole size 1 = 0.30500 METRIC
T01C0.30500
%
G05
G90
T01
X27.94Y8.636
X57.785Y12.319
X73.406Y27.051
X67.945Y25.019
X73.406Y25.781
X67.31Y24.257
X64.897Y7.62
X54.61Y17.907
X66.421Y12.573
X56.642Y17.907
X73.787Y14.605
X58.674Y17.907
X45.593Y30.861
X72.771Y36.83
X38.354Y32.893
X71.755Y47.117
X35.814Y31.496
X71.501Y51.943
X59.309Y52.56397
X58.71758Y36.87358
X61.55142Y42.418
X63.8643Y42.4347
X67.92273Y43.58327
X59.309Y23.622
X60.452Y25.4
X33.274Y32.766
X69.70491Y46.07551
X70.231Y36.83
X57.404Y35.56
X66.929Y41.91
X58.928Y44.069
X8.382Y32.385
X8.763Y59.563
X13.589Y49.022
X11.049Y47.625
X21.844Y42.164
X29.972Y49.657
X45.974Y56.769
X10.16Y32.385
X20.574Y26.797
X21.463Y41.148
X25.019Y37.719
X31.496Y35.687
X20.98637Y39.878
X25.019Y35.814
X16.891Y34.036
X16.87746Y32.53128
X57.15Y49.784
M30