;TYPE=PLATED
;Layer: PTH_Through
;EasyEDA Pro Client v2.2.43.4, 2025-12-14 11:37:12
;Gerber Generator version 0.3
M48
METRIC,LZ,0000.00000
;Hole size 1 = 0.30500 METRIC
T01C0.30500
;Hole size 2 = 0.76200 METRIC
T02C0.76200
;Hole size 3 = 0.80000 METRIC
T03C0.80000
;Hole size 4 = 0.90002 METRIC
T04C0.90002
;Hole size 5 = 0.91440 METRIC
T05C0.91440
;Hole size 6 = 1.09002 METRIC
T06C1.09002
;Hole size 7 = 1.20000 METRIC
T07C1.20000
;Hole size 8 = 1.50002 METRIC
T08C1.50002
;Hole size 9 = 1.60000 METRIC
T09C1.60000
;Hole size 10 = 1.80000 METRIC
T10C1.80000
;Hole size 11 = 2.30002 METRIC
T11C2.30002
%
G05
G90
T01
X27.94Y8.636
X57.785Y12.319
X73.406Y27.051
X67.945Y25.019
X73.406Y25.781
X67.31Y24.257
X64.897Y7.62
X54.61Y17.907
X66.421Y12.573
X56.642Y17.907
X73.787Y14.605
X58.674Y17.907
X45.593Y30.861
X72.771Y36.83
X38.354Y32.893
X71.755Y47.117
X35.814Y31.496
X71.501Y51.943
X59.309Y52.56397
X58.71758Y36.87358
X61.55142Y42.418
X63.8643Y42.4347
X67.92273Y43.58327
X59.309Y23.622
X60.452Y25.4
X33.274Y32.766
X69.70491Y46.07551
X70.231Y36.83
X57.404Y35.56
X66.929Y41.91
X58.928Y44.069
X8.382Y32.385
X8.763Y59.563
X13.589Y49.022
X11.049Y47.625
X21.844Y42.164
X29.972Y49.657
X45.974Y56.769
X10.16Y32.385
X20.574Y26.797
X21.463Y41.148
X25.019Y37.719
X31.496Y35.687
X20.98637Y39.878
X25.019Y35.814
X16.891Y34.036
X16.87746Y32.53128
X57.15Y49.784
T02
X74.93Y32.893
X77.47Y35.433
X80.01Y32.893
T03
X65.008Y32.893
X63.008Y32.893
X52.689Y12.065
X50.689Y12.065
X27.575Y11.557
X29.575Y11.557
X30.861Y54.626
X30.861Y56.626
X18.59689Y30.93311
X20.01111Y29.51889
T04
X66.29397Y20.73801
X66.29397Y28.53799
X63.75397Y20.73801
X63.75397Y28.53799
X61.21397Y20.73801
X61.21397Y28.53799
X58.67397Y20.73801
X58.67397Y28.53799
X56.13397Y20.73801
X56.13397Y28.53799
X53.594Y20.73801
X53.594Y28.53799
X51.054Y20.73801
X51.054Y28.53799
X48.514Y20.73801
X48.514Y28.53799
X45.974Y20.73801
X45.974Y28.53799
X43.434Y20.73801
X43.434Y28.53799
X40.89403Y20.73801
X40.89403Y28.53799
X38.35403Y20.73801
X38.35403Y28.53799
X35.81403Y20.73801
X35.81403Y28.53799
X33.27403Y20.73801
X33.27403Y28.53799
T05
X28.979Y23.316
X28.979Y25.856
X28.979Y33.476
X28.979Y28.396
X28.979Y20.776
X28.979Y30.936
X42.672Y39.30802
X45.212Y39.30802
X47.752Y39.30802
X50.292Y39.30802
X52.832Y39.30802
X55.372Y39.30802
X55.372Y50.60798
X52.832Y50.60798
X50.292Y50.60798
X47.752Y50.60798
X45.212Y50.60798
X42.672Y50.60798
X19.685Y17.272
X22.225Y17.272
X24.765Y17.272
X27.305Y17.272
X29.845Y17.272
X32.385Y17.272
X34.925Y17.272
X37.465Y17.272
X19.685Y4.472
X22.225Y4.472
X24.765Y4.472
X27.305Y4.472
X29.845Y4.472
X32.385Y4.472
X34.925Y4.472
X37.465Y4.472
X32.385Y1.67054
X29.845Y1.67054
X27.305Y1.67054
X24.765Y1.67054
X19.685Y1.651
X22.225Y1.651
X24.765Y22.272
X22.225Y22.272
X24.765Y24.812
X22.225Y24.812
X24.765Y19.732
X22.225Y19.732
T06
X33.401Y50.546
X35.941Y50.546
X38.481Y50.546
T07
X79.46199Y18.80695
X76.962Y18.80695
X74.46201Y18.80695
X74.46201Y4.30693
X79.46199Y4.30693
X17.83199Y13.68001
X24.33201Y13.68001
X17.83199Y9.17999
X24.33201Y9.17999
T08
X3.89606Y19.4851
X14.64602Y19.4851
X11.89604Y57.98502
X3.89606Y57.98502
T09
X10.287Y9.28101
X10.287Y4.18102
X2.794Y9.28101
X2.794Y4.18102
T10
X71.46201Y10.30694G85X71.46201Y12.30694
X82.46199Y10.30694G85X82.46199Y12.30694
X95.78917Y30.77685
X95.78917Y58.37712
T11
X83.78922Y34.57705
X83.78922Y56.57693
M30