G04 Layer: BottomSolderMaskLayer*
G04 EasyEDA Pro v2.2.43.4, 2025-12-14 11:37:12*
G04 Gerber Generator version 0.3*
G04 Scale: 100 percent, Rotated: No, Reflected: No*
G04 Dimensions in millimeters*
G04 Leading zeros omitted, absolute positions, 4 integers and 5 decimals*
G04 Generated by one-click*
%FSLAX45Y45*%
%MOMM*%
%AMRoundRect*1,1,$1,$2,$3*1,1,$1,$4,$5*1,1,$1,0-$2,0-$3*1,1,$1,0-$4,0-$5*20,1,$1,$2,$3,$4,$5,0*20,1,$1,$4,$5,0-$2,0-$3,0*20,1,$1,0-$2,0-$3,0-$4,0-$5,0*20,1,$1,0-$4,0-$5,$2,$3,0*4,1,4,$2,$3,$4,$5,0-$2,0-$3,0-$4,0-$5,$2,$3,0*%
%ADD10C,1.6256*%
%ADD11RoundRect,0.09562X-0.76499X-0.76499X-0.76499X0.76499*%
%ADD12O,0.66002X2.53202*%
%ADD13C,2.3*%
%ADD14C,2.3016*%
%ADD15RoundRect,0.09495X-0.70833X0.67833X0.70833X0.67833*%
%ADD16RoundRect,0.09131X-0.40514X0.45514X0.40514X0.45514*%
%ADD17C,1.4008*%
%ADD18C,1.4016*%
%ADD19RoundRect,0.09428X-0.60742X0.85416X0.60742X0.85416*%
%ADD20C,2.1016*%
%ADD21O,2.70159X4.7016*%
%ADD22RoundRect,0.09473X-2.75343X0.65343X2.75343X0.65343*%
%ADD23C,1.9016*%
%ADD24RoundRect,0.09428X-0.85416X-0.60742X-0.85416X0.60742*%
%ADD25O,0.68961X2.1466*%
%ADD26O,1.6256X2.1016*%
%ADD27C,3.10159*%
%ADD28C,2.70159*%
%ADD29C,0.6016*%
%ADD30C,1.68999*%
G75*


G04 Pad Start*
G54D10*
G01X2897900Y2331600D03*
G01X2897900Y2585600D03*
G54D11*
G01X2897900Y3347600D03*
G54D10*
G01X2897900Y2839600D03*
G01X2897900Y2077600D03*
G01X2897900Y3093600D03*
G01X4267200Y3930802D03*
G01X4521200Y3930802D03*
G01X4775200Y3930802D03*
G01X5029200Y3930802D03*
G01X5283200Y3930802D03*
G01X5537200Y3930802D03*
G01X5537200Y5060798D03*
G01X5283200Y5060798D03*
G01X5029200Y5060798D03*
G01X4775200Y5060798D03*
G01X4521200Y5060798D03*
G01X4267200Y5060798D03*
G54D12*
G01X5878291Y3949821D03*
G01X6005291Y3949821D03*
G01X6132291Y3949821D03*
G01X6259291Y3949821D03*
G01X6386291Y3949821D03*
G01X7021291Y3949821D03*
G01X6894291Y3949821D03*
G01X6767291Y3949821D03*
G01X6640291Y3949821D03*
G01X6513291Y3949821D03*
G01X7148291Y3949821D03*
G01X7275291Y3949821D03*
G01X7275291Y4915021D03*
G01X7148291Y4915021D03*
G01X6513291Y4915021D03*
G01X6640291Y4915021D03*
G01X6767291Y4915021D03*
G01X6894291Y4915021D03*
G01X7021291Y4915021D03*
G01X6386291Y4915021D03*
G01X6259291Y4915021D03*
G01X6132291Y4915021D03*
G01X6005291Y4915021D03*
G01X5878291Y4915021D03*
G54D13*
G01X389598Y1948510D03*
G01X1464602Y1948510D03*
G01X1189596Y5798490D03*
G01X389598Y5798490D03*
G54D14*
G01X1028700Y928101D03*
G01X1028700Y418102D03*
G01X279400Y928101D03*
G01X279400Y418102D03*
G54D15*
G01X4230700Y876300D03*
G01X4430700Y876300D03*
G01X3706800Y876300D03*
G01X3506800Y876300D03*
G54D16*
G01X6508902Y3670300D03*
G01X6368898Y3670300D03*
G54D18*
G01X6500800Y3289300D03*
G01X6300800Y3289300D03*
G54D19*
G01X6281979Y1536700D03*
G01X5986221Y1536700D03*
G54D10*
G01X7493000Y3289300D03*
G01X7747000Y3543300D03*
G01X8001000Y3289300D03*
G54D20*
G01X7946187Y1880705D03*
G01X7696200Y1880705D03*
G01X7446188Y1880705D03*
G01X7446188Y430695D03*
G01X7946187Y430695D03*
G54D21*
G01X7146201Y1130694D03*
G01X8246199Y1130694D03*
G54D22*
G01X3507105Y1320800D03*
G01X4417695Y1320800D03*
G54D16*
G01X5099202Y1651000D03*
G01X4959198Y1651000D03*
G54D18*
G01X5268900Y1206500D03*
G01X5068900Y1206500D03*
G54D23*
G01X1783207Y1367993D03*
G01X2433193Y1367993D03*
G01X1783207Y918007D03*
G01X2433193Y918007D03*
G54D24*
G01X8583831Y1466390D03*
G01X8583831Y1762148D03*
G01X8583831Y2359048D03*
G01X8583831Y2063290D03*
G54D25*
G01X8915400Y2245741D03*
G01X9042400Y2245741D03*
G01X9169400Y2245741D03*
G01X9296400Y2245741D03*
G01X8915400Y1691259D03*
G01X9042400Y1691259D03*
G01X9169400Y1691259D03*
G01X9296400Y1691259D03*
G54D16*
G01X9048717Y2505070D03*
G01X9188722Y2505070D03*
G54D24*
G01X7947632Y2354021D03*
G01X7947632Y2649779D03*
G01X7658100Y2354021D03*
G01X7658100Y2649779D03*
G01X6781800Y423621D03*
G01X6781800Y719379D03*
G01X7061200Y2950921D03*
G01X7061200Y3246679D03*
G01X9575800Y2484679D03*
G01X9575800Y2188921D03*
G54D18*
G01X2757500Y1155700D03*
G01X2957500Y1155700D03*
G54D26*
G01X6629400Y2073808D03*
G01X6629400Y2853792D03*
G01X6375400Y2073808D03*
G01X6375400Y2853792D03*
G01X6121400Y2073808D03*
G01X6121400Y2853792D03*
G01X5867400Y2073808D03*
G01X5867400Y2853792D03*
G01X5613400Y2073808D03*
G01X5613400Y2853792D03*
G01X5359400Y2073808D03*
G01X5359400Y2853792D03*
G01X5105400Y2073808D03*
G01X5105400Y2853792D03*
G01X4851400Y2073808D03*
G01X4851400Y2853792D03*
G01X4597400Y2073808D03*
G01X4597400Y2853792D03*
G01X4343400Y2073808D03*
G01X4343400Y2853792D03*
G01X4089400Y2073808D03*
G01X4089400Y2853792D03*
G01X3835400Y2073808D03*
G01X3835400Y2853792D03*
G01X3581400Y2073808D03*
G01X3581400Y2853792D03*
G01X3327400Y2073808D03*
G01X3327400Y2853792D03*
G54D27*
G01X8378901Y3457702D03*
G01X8378901Y5657698D03*
G54D28*
G01X9578899Y3077693D03*
G01X9578899Y5837707D03*
G54D18*
G01X3086100Y5462600D03*
G01X3086100Y5662600D03*
G01X1859689Y3093311D03*
G01X2001111Y2951889D03*
G54D10*
G01X1968500Y1727200D03*
G01X2222500Y1727200D03*
G01X2476500Y1727200D03*
G01X2730500Y1727200D03*
G01X2984500Y1727200D03*
G01X3238500Y1727200D03*
G01X3492500Y1727200D03*
G01X3746500Y1727200D03*
G01X1968500Y447200D03*
G01X2222500Y447200D03*
G01X2476500Y447200D03*
G01X2730500Y447200D03*
G01X2984500Y447200D03*
G01X3238500Y447200D03*
G01X3492500Y447200D03*
G01X3746500Y447200D03*
G01X3238500Y167054D03*
G01X2984500Y167054D03*
G01X2730500Y167054D03*
G01X2476500Y167054D03*
G01X1968500Y165100D03*
G01X2222500Y165100D03*
G01X2476500Y2227200D03*
G01X2222500Y2227200D03*
G01X2476500Y2481200D03*
G01X2222500Y2481200D03*
G01X2476500Y1973200D03*
G01X2222500Y1973200D03*
G54D29*
G01X4811300Y5680082D03*
G01X4812900Y6011882D03*
G01X5130400Y5848382D03*
G01X7756100Y3986181D03*
G54D30*
G01X3340100Y5054600D03*
G01X3594100Y5054600D03*
G01X3848100Y5054600D03*
G04 Pad End*

M02*

