G04 Layer: BottomPasteMaskLayer*
G04 EasyEDA Pro v2.2.43.4, 2025-12-14 11:37:12*
G04 Gerber Generator version 0.3*
G04 Scale: 100 percent, Rotated: No, Reflected: No*
G04 Dimensions in millimeters*
G04 Leading zeros omitted, absolute positions, 4 integers and 5 decimals*
G04 Generated by one-click*
%FSLAX45Y45*%
%MOMM*%
%ADD10O,0.55999X2.432*%
%ADD11R,0.8X0.9*%
%ADD12R,5.49999X1.3*%
%ADD13O,0.58801X2.045*%
%ADD14C,0.5*%
%ADD15C,0.6664*%
G75*


G04 PolygonModel Start*
G36*
G01X4501198Y812300D02*
G01X4501198Y940298D01*
G01X4496196Y945299D01*
G01X4381195Y945299D01*
G01X4376196Y940298D01*
G01X4375694Y899295D01*
G01X4420695Y899295D01*
G01X4420695Y854296D01*
G01X4376694Y854296D01*
G01X4376196Y812300D01*
G01X4381195Y807298D01*
G01X4496196Y807298D01*
G01X4501198Y812300D01*
G37*
G36*
G01X4160203Y940300D02*
G01X4160203Y812302D01*
G01X4165204Y807301D01*
G01X4280205Y807301D01*
G01X4285204Y812302D01*
G01X4285706Y853305D01*
G01X4240705Y853305D01*
G01X4240705Y898304D01*
G01X4284706Y898304D01*
G01X4285204Y940300D01*
G01X4280205Y945302D01*
G01X4165204Y945302D01*
G01X4160203Y940300D01*
G37*
G36*
G01X3436303Y940300D02*
G01X3436303Y812302D01*
G01X3441304Y807301D01*
G01X3556305Y807301D01*
G01X3561304Y812302D01*
G01X3561806Y853305D01*
G01X3516805Y853305D01*
G01X3516805Y898304D01*
G01X3560806Y898304D01*
G01X3561304Y940300D01*
G01X3556305Y945302D01*
G01X3441304Y945302D01*
G01X3436303Y940300D01*
G37*
G36*
G01X3777298Y812300D02*
G01X3777298Y940298D01*
G01X3772296Y945299D01*
G01X3657295Y945299D01*
G01X3652296Y940298D01*
G01X3651794Y899295D01*
G01X3696795Y899295D01*
G01X3696795Y854296D01*
G01X3652794Y854296D01*
G01X3652296Y812300D01*
G01X3657295Y807298D01*
G01X3772296Y807298D01*
G01X3777298Y812300D01*
G37*
G36*
G01X6221600Y1611749D02*
G01X6221600Y1575618D01*
G01X6231600Y1565618D01*
G01X6252657Y1565618D01*
G01X6262657Y1555618D01*
G01X6262657Y1517782D01*
G01X6252657Y1507782D01*
G01X6231600Y1507782D01*
G01X6221600Y1497782D01*
G01X6221600Y1461651D01*
G01X6231600Y1451651D01*
G01X6332352Y1451651D01*
G01X6342352Y1461651D01*
G01X6342352Y1611749D01*
G01X6332352Y1621749D01*
G01X6231600Y1621749D01*
G01X6221600Y1611749D01*
G37*
G36*
G01X6046600Y1611749D02*
G01X6046600Y1575618D01*
G01X6036600Y1565618D01*
G01X6015543Y1565618D01*
G01X6005543Y1555618D01*
G01X6005543Y1517782D01*
G01X6015543Y1507782D01*
G01X6036600Y1507782D01*
G01X6046600Y1497782D01*
G01X6046600Y1461651D01*
G01X6036600Y1451651D01*
G01X5935848Y1451651D01*
G01X5925848Y1461651D01*
G01X5925848Y1611749D01*
G01X5935848Y1621749D01*
G01X6036600Y1621749D01*
G01X6046600Y1611749D01*
G37*
G36*
G01X8658880Y1526769D02*
G01X8622749Y1526769D01*
G01X8612749Y1516769D01*
G01X8612749Y1495712D01*
G01X8602749Y1485712D01*
G01X8564913Y1485712D01*
G01X8554913Y1495712D01*
G01X8554913Y1516769D01*
G01X8544913Y1526769D01*
G01X8508782Y1526769D01*
G01X8498782Y1516769D01*
G01X8498782Y1416017D01*
G01X8508782Y1406017D01*
G01X8658880Y1406017D01*
G01X8668880Y1416017D01*
G01X8668880Y1516769D01*
G01X8658880Y1526769D01*
G37*
G36*
G01X8658880Y1701770D02*
G01X8622749Y1701770D01*
G01X8612749Y1711770D01*
G01X8612749Y1732826D01*
G01X8602749Y1742826D01*
G01X8564913Y1742826D01*
G01X8554913Y1732826D01*
G01X8554913Y1711770D01*
G01X8544913Y1701770D01*
G01X8508782Y1701770D01*
G01X8498782Y1711770D01*
G01X8498782Y1812521D01*
G01X8508782Y1822521D01*
G01X8658880Y1822521D01*
G01X8668880Y1812521D01*
G01X8668880Y1711770D01*
G01X8658880Y1701770D01*
G37*
G36*
G01X8508782Y2298670D02*
G01X8544913Y2298670D01*
G01X8554913Y2308670D01*
G01X8554913Y2329726D01*
G01X8564913Y2339726D01*
G01X8602749Y2339726D01*
G01X8612749Y2329726D01*
G01X8612749Y2308670D01*
G01X8622749Y2298670D01*
G01X8658880Y2298670D01*
G01X8668880Y2308670D01*
G01X8668880Y2409421D01*
G01X8658880Y2419421D01*
G01X8508782Y2419421D01*
G01X8498782Y2409421D01*
G01X8498782Y2308670D01*
G01X8508782Y2298670D01*
G37*
G36*
G01X8508782Y2123669D02*
G01X8544913Y2123669D01*
G01X8554913Y2113669D01*
G01X8554913Y2092612D01*
G01X8564913Y2082612D01*
G01X8602749Y2082612D01*
G01X8612749Y2092612D01*
G01X8612749Y2113669D01*
G01X8622749Y2123669D01*
G01X8658880Y2123669D01*
G01X8668880Y2113669D01*
G01X8668880Y2012917D01*
G01X8658880Y2002917D01*
G01X8508782Y2002917D01*
G01X8498782Y2012917D01*
G01X8498782Y2113669D01*
G01X8508782Y2123669D01*
G37*
G36*
G01X8022681Y2414400D02*
G01X7986550Y2414400D01*
G01X7976550Y2404400D01*
G01X7976550Y2383343D01*
G01X7966550Y2373343D01*
G01X7928714Y2373343D01*
G01X7918714Y2383343D01*
G01X7918714Y2404400D01*
G01X7908714Y2414400D01*
G01X7872583Y2414400D01*
G01X7862583Y2404400D01*
G01X7862583Y2303648D01*
G01X7872583Y2293648D01*
G01X8022681Y2293648D01*
G01X8032681Y2303648D01*
G01X8032681Y2404400D01*
G01X8022681Y2414400D01*
G37*
G36*
G01X8022681Y2589400D02*
G01X7986550Y2589400D01*
G01X7976550Y2599400D01*
G01X7976550Y2620457D01*
G01X7966550Y2630457D01*
G01X7928714Y2630457D01*
G01X7918714Y2620457D01*
G01X7918714Y2599400D01*
G01X7908714Y2589400D01*
G01X7872583Y2589400D01*
G01X7862583Y2599400D01*
G01X7862583Y2700152D01*
G01X7872583Y2710152D01*
G01X8022681Y2710152D01*
G01X8032681Y2700152D01*
G01X8032681Y2599400D01*
G01X8022681Y2589400D01*
G37*
G36*
G01X7733149Y2414400D02*
G01X7697018Y2414400D01*
G01X7687018Y2404400D01*
G01X7687018Y2383343D01*
G01X7677018Y2373343D01*
G01X7639182Y2373343D01*
G01X7629182Y2383343D01*
G01X7629182Y2404400D01*
G01X7619182Y2414400D01*
G01X7583051Y2414400D01*
G01X7573051Y2404400D01*
G01X7573051Y2303648D01*
G01X7583051Y2293648D01*
G01X7733149Y2293648D01*
G01X7743149Y2303648D01*
G01X7743149Y2404400D01*
G01X7733149Y2414400D01*
G37*
G36*
G01X7733149Y2589400D02*
G01X7697018Y2589400D01*
G01X7687018Y2599400D01*
G01X7687018Y2620457D01*
G01X7677018Y2630457D01*
G01X7639182Y2630457D01*
G01X7629182Y2620457D01*
G01X7629182Y2599400D01*
G01X7619182Y2589400D01*
G01X7583051Y2589400D01*
G01X7573051Y2599400D01*
G01X7573051Y2700152D01*
G01X7583051Y2710152D01*
G01X7733149Y2710152D01*
G01X7743149Y2700152D01*
G01X7743149Y2599400D01*
G01X7733149Y2589400D01*
G37*
G36*
G01X6856849Y484000D02*
G01X6820718Y484000D01*
G01X6810718Y474000D01*
G01X6810718Y452943D01*
G01X6800718Y442943D01*
G01X6762882Y442943D01*
G01X6752882Y452943D01*
G01X6752882Y474000D01*
G01X6742882Y484000D01*
G01X6706751Y484000D01*
G01X6696751Y474000D01*
G01X6696751Y373248D01*
G01X6706751Y363248D01*
G01X6856849Y363248D01*
G01X6866849Y373248D01*
G01X6866849Y474000D01*
G01X6856849Y484000D01*
G37*
G36*
G01X6856849Y659000D02*
G01X6820718Y659000D01*
G01X6810718Y669000D01*
G01X6810718Y690057D01*
G01X6800718Y700057D01*
G01X6762882Y700057D01*
G01X6752882Y690057D01*
G01X6752882Y669000D01*
G01X6742882Y659000D01*
G01X6706751Y659000D01*
G01X6696751Y669000D01*
G01X6696751Y769752D01*
G01X6706751Y779752D01*
G01X6856849Y779752D01*
G01X6866849Y769752D01*
G01X6866849Y669000D01*
G01X6856849Y659000D01*
G37*
G36*
G01X7136249Y3011300D02*
G01X7100118Y3011300D01*
G01X7090118Y3001300D01*
G01X7090118Y2980243D01*
G01X7080118Y2970243D01*
G01X7042282Y2970243D01*
G01X7032282Y2980243D01*
G01X7032282Y3001300D01*
G01X7022282Y3011300D01*
G01X6986151Y3011300D01*
G01X6976151Y3001300D01*
G01X6976151Y2900548D01*
G01X6986151Y2890548D01*
G01X7136249Y2890548D01*
G01X7146249Y2900548D01*
G01X7146249Y3001300D01*
G01X7136249Y3011300D01*
G37*
G36*
G01X7136249Y3186300D02*
G01X7100118Y3186300D01*
G01X7090118Y3196300D01*
G01X7090118Y3217357D01*
G01X7080118Y3227357D01*
G01X7042282Y3227357D01*
G01X7032282Y3217357D01*
G01X7032282Y3196300D01*
G01X7022282Y3186300D01*
G01X6986151Y3186300D01*
G01X6976151Y3196300D01*
G01X6976151Y3297052D01*
G01X6986151Y3307052D01*
G01X7136249Y3307052D01*
G01X7146249Y3297052D01*
G01X7146249Y3196300D01*
G01X7136249Y3186300D01*
G37*
G36*
G01X9500751Y2424300D02*
G01X9536882Y2424300D01*
G01X9546882Y2434300D01*
G01X9546882Y2455357D01*
G01X9556882Y2465357D01*
G01X9594718Y2465357D01*
G01X9604718Y2455357D01*
G01X9604718Y2434300D01*
G01X9614718Y2424300D01*
G01X9650849Y2424300D01*
G01X9660849Y2434300D01*
G01X9660849Y2535052D01*
G01X9650849Y2545052D01*
G01X9500751Y2545052D01*
G01X9490751Y2535052D01*
G01X9490751Y2434300D01*
G01X9500751Y2424300D01*
G37*
G36*
G01X9500751Y2249300D02*
G01X9536882Y2249300D01*
G01X9546882Y2239300D01*
G01X9546882Y2218243D01*
G01X9556882Y2208243D01*
G01X9594718Y2208243D01*
G01X9604718Y2218243D01*
G01X9604718Y2239300D01*
G01X9614718Y2249300D01*
G01X9650849Y2249300D01*
G01X9660849Y2239300D01*
G01X9660849Y2138548D01*
G01X9650849Y2128548D01*
G01X9500751Y2128548D01*
G01X9490751Y2138548D01*
G01X9490751Y2239300D01*
G01X9500751Y2249300D01*
G37*

G04 Pad Start*
G54D10*
G01X5878291Y3949821D03*
G01X6005291Y3949821D03*
G01X6132291Y3949821D03*
G01X6259291Y3949821D03*
G01X6386291Y3949821D03*
G01X7021291Y3949821D03*
G01X6894291Y3949821D03*
G01X6767291Y3949821D03*
G01X6640291Y3949821D03*
G01X6513291Y3949821D03*
G01X7148291Y3949821D03*
G01X7275291Y3949821D03*
G01X7275291Y4915021D03*
G01X7148291Y4915021D03*
G01X6513291Y4915021D03*
G01X6640291Y4915021D03*
G01X6767291Y4915021D03*
G01X6894291Y4915021D03*
G01X7021291Y4915021D03*
G01X6386291Y4915021D03*
G01X6259291Y4915021D03*
G01X6132291Y4915021D03*
G01X6005291Y4915021D03*
G01X5878291Y4915021D03*
G54D11*
G01X6508902Y3670300D03*
G01X6368898Y3670300D03*
G54D12*
G01X3507105Y1320800D03*
G01X4417695Y1320800D03*
G54D11*
G01X5099202Y1651000D03*
G01X4959198Y1651000D03*
G54D13*
G01X8915400Y2245741D03*
G01X9042400Y2245741D03*
G01X9169400Y2245741D03*
G01X9296400Y2245741D03*
G01X8915400Y1691259D03*
G01X9042400Y1691259D03*
G01X9169400Y1691259D03*
G01X9296400Y1691259D03*
G54D11*
G01X9048717Y2505070D03*
G01X9188722Y2505070D03*
G54D14*
G01X4811300Y5680082D03*
G01X4812900Y6011882D03*
G01X5130400Y5848382D03*
G01X7756100Y3986181D03*
G04 Pad End*

M02*

