G04 Layer: TopSilkscreenLayer*
G04 EasyEDA Pro v2.2.43.4, 2025-12-14 11:37:12*
G04 Gerber Generator version 0.3*
G04 Scale: 100 percent, Rotated: No, Reflected: No*
G04 Dimensions in millimeters*
G04 Leading zeros omitted, absolute positions, 4 integers and 5 decimals*
G04 Generated by one-click*
%FSLAX45Y45*%
%MOMM*%
%ADD10C,0.155*%
%ADD11C,0.153*%
%ADD12C,0.254*%
%ADD13C,0.1524*%
%ADD14C,0.3*%
%ADD15C,0.9889*%
G75*


G04 Text Start*
G54D10*
G01X2634412Y2000274D02*
G01X2690038Y2000274D01*
G01X2634412Y2000274D02*
G01X2634412Y2023896D01*
G01X2637206Y2031770D01*
G01X2639746Y2034564D01*
G01X2645080Y2037104D01*
G01X2650414Y2037104D01*
G01X2655748Y2034564D01*
G01X2658288Y2031770D01*
G01X2660828Y2023896D01*
G01X2660828Y2000274D01*
G01X2660828Y2018562D02*
G01X2690038Y2037104D01*
G01X2642540Y2102128D02*
G01X2637206Y2097048D01*
G01X2634412Y2088920D01*
G01X2634412Y2078506D01*
G01X2637206Y2070632D01*
G01X2642540Y2065298D01*
G01X2647620Y2065298D01*
G01X2652954Y2067838D01*
G01X2655748Y2070632D01*
G01X2658288Y2075966D01*
G01X2663622Y2091714D01*
G01X2666162Y2097048D01*
G01X2668956Y2099588D01*
G01X2674036Y2102128D01*
G01X2682164Y2102128D01*
G01X2687244Y2097048D01*
G01X2690038Y2088920D01*
G01X2690038Y2078506D01*
G01X2687244Y2070632D01*
G01X2682164Y2065298D01*
G01X2634412Y2148864D02*
G01X2690038Y2148864D01*
G01X2634412Y2130322D02*
G01X2634412Y2167152D01*
G01X2634412Y2331998D02*
G01X2690038Y2331998D01*
G01X2634412Y2313710D02*
G01X2634412Y2350540D01*
G01X2634412Y2378734D02*
G01X2690038Y2415564D01*
G01X2634412Y2415564D02*
G01X2690038Y2378734D01*
G01X2634412Y2502940D02*
G01X2690038Y2502940D01*
G01X2634412Y2502940D02*
G01X2634412Y2526562D01*
G01X2637206Y2534690D01*
G01X2639746Y2537230D01*
G01X2645080Y2539770D01*
G01X2650414Y2539770D01*
G01X2655748Y2537230D01*
G01X2658288Y2534690D01*
G01X2660828Y2526562D01*
G01X2660828Y2502940D01*
G01X2660828Y2521482D02*
G01X2690038Y2539770D01*
G01X2634412Y2567964D02*
G01X2690038Y2604794D01*
G01X2634412Y2604794D02*
G01X2690038Y2567964D01*
G01X2634412Y2751352D02*
G01X2690038Y2772434D01*
G01X2634412Y2793516D02*
G01X2690038Y2772434D01*
G01X2634412Y2821710D02*
G01X2690038Y2821710D01*
G01X2634412Y2821710D02*
G01X2634412Y2840252D01*
G01X2637206Y2848126D01*
G01X2642540Y2853460D01*
G01X2647620Y2856000D01*
G01X2655748Y2858540D01*
G01X2668956Y2858540D01*
G01X2676830Y2856000D01*
G01X2682164Y2853460D01*
G01X2687244Y2848126D01*
G01X2690038Y2840252D01*
G01X2690038Y2821710D01*
G01X2634412Y2886734D02*
G01X2690038Y2886734D01*
G01X2634412Y2886734D02*
G01X2634412Y2905276D01*
G01X2637206Y2913150D01*
G01X2642540Y2918484D01*
G01X2647620Y2921024D01*
G01X2655748Y2923564D01*
G01X2668956Y2923564D01*
G01X2676830Y2921024D01*
G01X2682164Y2918484D01*
G01X2687244Y2913150D01*
G01X2690038Y2905276D01*
G01X2690038Y2886734D01*
G01X2647620Y3287038D02*
G01X2642540Y3284498D01*
G01X2637206Y3279164D01*
G01X2634412Y3273830D01*
G01X2634412Y3263416D01*
G01X2637206Y3258082D01*
G01X2642540Y3252748D01*
G01X2647620Y3250208D01*
G01X2655748Y3247414D01*
G01X2668956Y3247414D01*
G01X2676830Y3250208D01*
G01X2682164Y3252748D01*
G01X2687244Y3258082D01*
G01X2690038Y3263416D01*
G01X2690038Y3273830D01*
G01X2687244Y3279164D01*
G01X2682164Y3284498D01*
G01X2676830Y3287038D01*
G01X2668956Y3287038D01*
G01X2668956Y3273830D02*
G01X2668956Y3287038D01*
G01X2634412Y3315232D02*
G01X2690038Y3315232D01*
G01X2634412Y3315232D02*
G01X2690038Y3352062D01*
G01X2634412Y3352062D02*
G01X2690038Y3352062D01*
G01X2634412Y3380256D02*
G01X2690038Y3380256D01*
G01X2634412Y3380256D02*
G01X2634412Y3398798D01*
G01X2637206Y3406672D01*
G01X2642540Y3412006D01*
G01X2647620Y3414546D01*
G01X2655748Y3417086D01*
G01X2668956Y3417086D01*
G01X2676830Y3414546D01*
G01X2682164Y3412006D01*
G01X2687244Y3406672D01*
G01X2690038Y3398798D01*
G01X2690038Y3380256D01*
G01X4178554Y3717036D02*
G01X4172204Y3723386D01*
G01X4163060Y3726434D01*
G01X4150614Y3726434D01*
G01X4141470Y3723386D01*
G01X4135374Y3717036D01*
G01X4135374Y3710940D01*
G01X4138422Y3704844D01*
G01X4141470Y3701796D01*
G01X4147566Y3698494D01*
G01X4166108Y3692398D01*
G01X4172204Y3689350D01*
G01X4175506Y3686302D01*
G01X4178554Y3680206D01*
G01X4178554Y3670808D01*
G01X4172204Y3664712D01*
G01X4163060Y3661664D01*
G01X4150614Y3661664D01*
G01X4141470Y3664712D01*
G01X4135374Y3670808D01*
G01X4208780Y3726434D02*
G01X4208780Y3661664D01*
G01X4208780Y3726434D02*
G01X4248912Y3726434D01*
G01X4208780Y3695446D02*
G01X4233672Y3695446D01*
G01X4208780Y3661664D02*
G01X4248912Y3661664D01*
G01X4325620Y3710940D02*
G01X4322572Y3717036D01*
G01X4316222Y3723386D01*
G01X4310126Y3726434D01*
G01X4297680Y3726434D01*
G01X4291584Y3723386D01*
G01X4285488Y3717036D01*
G01X4282440Y3710940D01*
G01X4279138Y3701796D01*
G01X4279138Y3686302D01*
G01X4282440Y3676904D01*
G01X4285488Y3670808D01*
G01X4291584Y3664712D01*
G01X4297680Y3661664D01*
G01X4310126Y3661664D01*
G01X4316222Y3664712D01*
G01X4322572Y3670808D01*
G01X4325620Y3676904D01*
G01X4325620Y3686302D01*
G01X4310126Y3686302D02*
G01X4325620Y3686302D01*
G01X4355846Y3726434D02*
G01X4355846Y3661664D01*
G01X4355846Y3726434D02*
G01X4380738Y3661664D01*
G01X4405376Y3726434D02*
G01X4380738Y3661664D01*
G01X4405376Y3726434D02*
G01X4405376Y3661664D01*
G01X4457192Y3726434D02*
G01X4457192Y3661664D01*
G01X4435602Y3726434D02*
G01X4479036Y3726434D01*
G01X4509262Y3640074D02*
G01X4564888Y3640074D01*
G01X4595114Y3726434D02*
G01X4595114Y3661664D01*
G01X4595114Y3726434D02*
G01X4616704Y3726434D01*
G01X4626102Y3723386D01*
G01X4632198Y3717036D01*
G01X4635246Y3710940D01*
G01X4638548Y3701796D01*
G01X4638548Y3686302D01*
G01X4635246Y3676904D01*
G01X4632198Y3670808D01*
G01X4626102Y3664712D01*
G01X4616704Y3661664D01*
G01X4595114Y3661664D01*
G01X4668774Y3726434D02*
G01X4668774Y3661664D01*
G01X4742434Y3717036D02*
G01X4736338Y3723386D01*
G01X4726940Y3726434D01*
G01X4714748Y3726434D01*
G01X4705350Y3723386D01*
G01X4699254Y3717036D01*
G01X4699254Y3710940D01*
G01X4702302Y3704844D01*
G01X4705350Y3701796D01*
G01X4711446Y3698494D01*
G01X4729988Y3692398D01*
G01X4736338Y3689350D01*
G01X4739386Y3686302D01*
G01X4742434Y3680206D01*
G01X4742434Y3670808D01*
G01X4736338Y3664712D01*
G01X4726940Y3661664D01*
G01X4714748Y3661664D01*
G01X4705350Y3664712D01*
G01X4699254Y3670808D01*
G01X4772660Y3726434D02*
G01X4772660Y3661664D01*
G01X4772660Y3726434D02*
G01X4800600Y3726434D01*
G01X4809744Y3723386D01*
G01X4812792Y3720338D01*
G01X4816094Y3713988D01*
G01X4816094Y3704844D01*
G01X4812792Y3698494D01*
G01X4809744Y3695446D01*
G01X4800600Y3692398D01*
G01X4772660Y3692398D01*
G01X4846320Y3713988D02*
G01X4852670Y3717036D01*
G01X4861814Y3726434D01*
G01X4861814Y3661664D01*
G01X1862074Y1592834D02*
G01X1862074Y1528064D01*
G01X1862074Y1592834D02*
G01X1889760Y1592834D01*
G01X1898904Y1589786D01*
G01X1902206Y1586738D01*
G01X1905254Y1580388D01*
G01X1905254Y1574292D01*
G01X1902206Y1568196D01*
G01X1898904Y1564894D01*
G01X1889760Y1561846D01*
G01X1862074Y1561846D01*
G01X1883664Y1561846D02*
G01X1905254Y1528064D01*
G01X1978914Y1583436D02*
G01X1972564Y1589786D01*
G01X1963420Y1592834D01*
G01X1950974Y1592834D01*
G01X1941830Y1589786D01*
G01X1935480Y1583436D01*
G01X1935480Y1577340D01*
G01X1938782Y1571244D01*
G01X1941830Y1568196D01*
G01X1947926Y1564894D01*
G01X1966468Y1558798D01*
G01X1972564Y1555750D01*
G01X1975612Y1552702D01*
G01X1978914Y1546606D01*
G01X1978914Y1537208D01*
G01X1972564Y1531112D01*
G01X1963420Y1528064D01*
G01X1950974Y1528064D01*
G01X1941830Y1531112D01*
G01X1935480Y1537208D01*
G01X2030730Y1592834D02*
G01X2030730Y1528064D01*
G01X2009140Y1592834D02*
G01X2052574Y1592834D01*
G01X2082800Y1506474D02*
G01X2138426Y1506474D01*
G01X2168652Y1592834D02*
G01X2168652Y1528064D01*
G01X2168652Y1592834D02*
G01X2196592Y1592834D01*
G01X2205736Y1589786D01*
G01X2208784Y1586738D01*
G01X2212086Y1580388D01*
G01X2212086Y1574292D01*
G01X2208784Y1568196D01*
G01X2205736Y1564894D01*
G01X2196592Y1561846D01*
G01X2168652Y1561846D02*
G01X2196592Y1561846D01*
G01X2205736Y1558798D01*
G01X2208784Y1555750D01*
G01X2212086Y1549654D01*
G01X2212086Y1540256D01*
G01X2208784Y1534160D01*
G01X2205736Y1531112D01*
G01X2196592Y1528064D01*
G01X2168652Y1528064D01*
G01X2263902Y1592834D02*
G01X2263902Y1528064D01*
G01X2242312Y1592834D02*
G01X2285746Y1592834D01*
G01X2315972Y1592834D02*
G01X2315972Y1528064D01*
G01X2315972Y1592834D02*
G01X2359406Y1528064D01*
G01X2359406Y1592834D02*
G01X2359406Y1528064D01*
G01X2389632Y1580388D02*
G01X2395982Y1583436D01*
G01X2405126Y1592834D01*
G01X2405126Y1528064D01*
G01X2467102Y3507740D02*
G01X2464054Y3513836D01*
G01X2457704Y3520186D01*
G01X2451608Y3523234D01*
G01X2439162Y3523234D01*
G01X2433066Y3520186D01*
G01X2426970Y3513836D01*
G01X2423922Y3507740D01*
G01X2420874Y3498596D01*
G01X2420874Y3483102D01*
G01X2423922Y3473704D01*
G01X2426970Y3467608D01*
G01X2433066Y3461512D01*
G01X2439162Y3458464D01*
G01X2451608Y3458464D01*
G01X2457704Y3461512D01*
G01X2464054Y3467608D01*
G01X2467102Y3473704D01*
G01X2537460Y3501644D02*
G01X2534412Y3492246D01*
G01X2528316Y3486150D01*
G01X2518918Y3483102D01*
G01X2515870Y3483102D01*
G01X2506726Y3486150D01*
G01X2500630Y3492246D01*
G01X2497328Y3501644D01*
G01X2497328Y3504692D01*
G01X2500630Y3513836D01*
G01X2506726Y3520186D01*
G01X2515870Y3523234D01*
G01X2518918Y3523234D01*
G01X2528316Y3520186D01*
G01X2534412Y3513836D01*
G01X2537460Y3501644D01*
G01X2537460Y3486150D01*
G01X2534412Y3470656D01*
G01X2528316Y3461512D01*
G01X2518918Y3458464D01*
G01X2512822Y3458464D01*
G01X2503678Y3461512D01*
G01X2500630Y3467608D01*
G01X3038602Y5920740D02*
G01X3035554Y5926836D01*
G01X3029204Y5933186D01*
G01X3023108Y5936234D01*
G01X3010662Y5936234D01*
G01X3004566Y5933186D01*
G01X2998470Y5926836D01*
G01X2995422Y5920740D01*
G01X2992374Y5911596D01*
G01X2992374Y5896102D01*
G01X2995422Y5886704D01*
G01X2998470Y5880608D01*
G01X3004566Y5874512D01*
G01X3010662Y5871464D01*
G01X3023108Y5871464D01*
G01X3029204Y5874512D01*
G01X3035554Y5880608D01*
G01X3038602Y5886704D01*
G01X3068828Y5923788D02*
G01X3075178Y5926836D01*
G01X3084322Y5936234D01*
G01X3084322Y5871464D01*
G01X3133090Y5936234D02*
G01X3123946Y5933186D01*
G01X3117850Y5923788D01*
G01X3114548Y5908294D01*
G01X3114548Y5899150D01*
G01X3117850Y5883656D01*
G01X3123946Y5874512D01*
G01X3133090Y5871464D01*
G01X3139440Y5871464D01*
G01X3148584Y5874512D01*
G01X3154680Y5883656D01*
G01X3157982Y5899150D01*
G01X3157982Y5908294D01*
G01X3154680Y5923788D01*
G01X3148584Y5933186D01*
G01X3139440Y5936234D01*
G01X3133090Y5936234D01*
G01X2187702Y2796540D02*
G01X2184654Y2802636D01*
G01X2178304Y2808986D01*
G01X2172208Y2812034D01*
G01X2159762Y2812034D01*
G01X2153666Y2808986D01*
G01X2147570Y2802636D01*
G01X2144522Y2796540D01*
G01X2141474Y2787396D01*
G01X2141474Y2771902D01*
G01X2144522Y2762504D01*
G01X2147570Y2756408D01*
G01X2153666Y2750312D01*
G01X2159762Y2747264D01*
G01X2172208Y2747264D01*
G01X2178304Y2750312D01*
G01X2184654Y2756408D01*
G01X2187702Y2762504D01*
G01X2217928Y2799588D02*
G01X2224278Y2802636D01*
G01X2233422Y2812034D01*
G01X2233422Y2747264D01*
G01X2263648Y2799588D02*
G01X2269998Y2802636D01*
G01X2279142Y2812034D01*
G01X2279142Y2747264D01*
G01X8554974Y4958334D02*
G01X8554974Y4893564D01*
G01X8554974Y4958334D02*
G01X8576564Y4958334D01*
G01X8585708Y4955286D01*
G01X8591804Y4948936D01*
G01X8595106Y4942840D01*
G01X8598154Y4933696D01*
G01X8598154Y4918202D01*
G01X8595106Y4908804D01*
G01X8591804Y4902708D01*
G01X8585708Y4896612D01*
G01X8576564Y4893564D01*
G01X8554974Y4893564D01*
G01X8628380Y4945888D02*
G01X8634730Y4948936D01*
G01X8643874Y4958334D01*
G01X8643874Y4893564D01*
G01X7865842Y4463034D02*
G01X7859746Y4459986D01*
G01X7853650Y4453636D01*
G01X7850602Y4447540D01*
G01X7847554Y4438396D01*
G01X7847554Y4422902D01*
G01X7850602Y4413504D01*
G01X7853650Y4407408D01*
G01X7859746Y4401312D01*
G01X7865842Y4398264D01*
G01X7878288Y4398264D01*
G01X7884384Y4401312D01*
G01X7890734Y4407408D01*
G01X7893782Y4413504D01*
G01X7896830Y4422902D01*
G01X7896830Y4438396D01*
G01X7893782Y4447540D01*
G01X7890734Y4453636D01*
G01X7884384Y4459986D01*
G01X7878288Y4463034D01*
G01X7865842Y4463034D01*
G01X7875240Y4410456D02*
G01X7893782Y4391914D01*
G01X7927056Y4450588D02*
G01X7933406Y4453636D01*
G01X7942550Y4463034D01*
G01X7942550Y4398264D01*
G01X795274Y2812034D02*
G01X795274Y2747264D01*
G01X795274Y2812034D02*
G01X822960Y2812034D01*
G01X832104Y2808986D01*
G01X835406Y2805938D01*
G01X838454Y2799588D01*
G01X838454Y2793492D01*
G01X835406Y2787396D01*
G01X832104Y2784094D01*
G01X822960Y2781046D01*
G01X795274Y2781046D01*
G01X816864Y2781046D02*
G01X838454Y2747264D01*
G01X868680Y2799588D02*
G01X875030Y2802636D01*
G01X884174Y2812034D01*
G01X884174Y2747264D01*
G01X914400Y2799588D02*
G01X920750Y2802636D01*
G01X929894Y2812034D01*
G01X929894Y2747264D01*
G01X1379474Y5656834D02*
G01X1379474Y5592064D01*
G01X1379474Y5656834D02*
G01X1407160Y5656834D01*
G01X1416304Y5653786D01*
G01X1419606Y5650738D01*
G01X1422654Y5644388D01*
G01X1422654Y5638292D01*
G01X1419606Y5632196D01*
G01X1416304Y5628894D01*
G01X1407160Y5625846D01*
G01X1379474Y5625846D01*
G01X1401064Y5625846D02*
G01X1422654Y5592064D01*
G01X1452880Y5644388D02*
G01X1459230Y5647436D01*
G01X1468374Y5656834D01*
G01X1468374Y5592064D01*
G01X1504950Y5656834D02*
G01X1538732Y5656834D01*
G01X1520190Y5632196D01*
G01X1529588Y5632196D01*
G01X1535684Y5628894D01*
G01X1538732Y5625846D01*
G01X1542034Y5616702D01*
G01X1542034Y5610606D01*
G01X1538732Y5601208D01*
G01X1532636Y5595112D01*
G01X1523492Y5592064D01*
G01X1514094Y5592064D01*
G01X1504950Y5595112D01*
G01X1501902Y5598160D01*
G01X1498600Y5604256D01*
G01X1836674Y6126734D02*
G01X1836674Y6061964D01*
G01X1836674Y6126734D02*
G01X1864360Y6126734D01*
G01X1873504Y6123686D01*
G01X1876806Y6120638D01*
G01X1879854Y6114288D01*
G01X1879854Y6108192D01*
G01X1876806Y6102096D01*
G01X1873504Y6098794D01*
G01X1864360Y6095746D01*
G01X1836674Y6095746D01*
G01X1858264Y6095746D02*
G01X1879854Y6061964D01*
G01X1910080Y6114288D02*
G01X1916430Y6117336D01*
G01X1925574Y6126734D01*
G01X1925574Y6061964D01*
G01X1986788Y6126734D02*
G01X1955800Y6083554D01*
G01X2002282Y6083554D01*
G01X1986788Y6126734D02*
G01X1986788Y6061964D01*
G01X2344674Y5999734D02*
G01X2344674Y5934964D01*
G01X2344674Y5999734D02*
G01X2372360Y5999734D01*
G01X2381504Y5996686D01*
G01X2384806Y5993638D01*
G01X2387854Y5987288D01*
G01X2387854Y5981192D01*
G01X2384806Y5975096D01*
G01X2381504Y5971794D01*
G01X2372360Y5968746D01*
G01X2344674Y5968746D01*
G01X2366264Y5968746D02*
G01X2387854Y5934964D01*
G01X2418080Y5987288D02*
G01X2424430Y5990336D01*
G01X2433574Y5999734D01*
G01X2433574Y5934964D01*
G01X2500884Y5999734D02*
G01X2470150Y5999734D01*
G01X2467102Y5971794D01*
G01X2470150Y5975096D01*
G01X2479294Y5978144D01*
G01X2488692Y5978144D01*
G01X2497836Y5975096D01*
G01X2503932Y5968746D01*
G01X2507234Y5959602D01*
G01X2507234Y5953506D01*
G01X2503932Y5944108D01*
G01X2497836Y5938012D01*
G01X2488692Y5934964D01*
G01X2479294Y5934964D01*
G01X2470150Y5938012D01*
G01X2467102Y5941060D01*
G01X2463800Y5947156D01*
G01X7996174Y5364734D02*
G01X7996174Y5299964D01*
G01X7996174Y5364734D02*
G01X8023860Y5364734D01*
G01X8033004Y5361686D01*
G01X8036306Y5358638D01*
G01X8039354Y5352288D01*
G01X8039354Y5346192D01*
G01X8036306Y5340096D01*
G01X8033004Y5336794D01*
G01X8023860Y5333746D01*
G01X7996174Y5333746D01*
G01X8017764Y5333746D02*
G01X8039354Y5299964D01*
G01X8069580Y5352288D02*
G01X8075930Y5355336D01*
G01X8085074Y5364734D01*
G01X8085074Y5299964D01*
G01X8158734Y5364734D02*
G01X8127746Y5299964D01*
G01X8115300Y5364734D02*
G01X8158734Y5364734D01*
G01X1849374Y3548634D02*
G01X1849374Y3502406D01*
G01X1852422Y3493008D01*
G01X1858518Y3486912D01*
G01X1867662Y3483864D01*
G01X1874012Y3483864D01*
G01X1883156Y3486912D01*
G01X1889506Y3493008D01*
G01X1892554Y3502406D01*
G01X1892554Y3548634D01*
G01X1966214Y3548634D02*
G01X1935226Y3483864D01*
G01X1922780Y3548634D02*
G01X1966214Y3548634D01*
G54D11*
G01X4274820Y6088634D02*
G01X4274820Y6042152D01*
G01X4277868Y6033008D01*
G01X4284218Y6026912D01*
G01X4293362Y6023610D01*
G01X4299712Y6023610D01*
G01X4308856Y6026912D01*
G01X4314952Y6033008D01*
G01X4318254Y6042152D01*
G01X4318254Y6088634D01*
G01X4388612Y6067044D02*
G01X4385564Y6057646D01*
G01X4379468Y6051550D01*
G01X4370070Y6048502D01*
G01X4367022Y6048502D01*
G01X4357624Y6051550D01*
G01X4351528Y6057646D01*
G01X4348480Y6067044D01*
G01X4348480Y6070092D01*
G01X4351528Y6079490D01*
G01X4357624Y6085586D01*
G01X4367022Y6088634D01*
G01X4370070Y6088634D01*
G01X4379468Y6085586D01*
G01X4385564Y6079490D01*
G01X4388612Y6067044D01*
G01X4388612Y6051550D01*
G01X4385564Y6036056D01*
G01X4379468Y6026912D01*
G01X4370070Y6023610D01*
G01X4363974Y6023610D01*
G01X4354576Y6026912D01*
G01X4351528Y6033008D01*
G54D10*
G01X7272274Y5440934D02*
G01X7272274Y5394706D01*
G01X7275322Y5385308D01*
G01X7281418Y5379212D01*
G01X7290562Y5376164D01*
G01X7296912Y5376164D01*
G01X7306056Y5379212D01*
G01X7312406Y5385308D01*
G01X7315454Y5394706D01*
G01X7315454Y5440934D01*
G01X7345680Y5428488D02*
G01X7352030Y5431536D01*
G01X7361174Y5440934D01*
G01X7361174Y5376164D01*
G01X7409942Y5440934D02*
G01X7400798Y5437886D01*
G01X7394702Y5428488D01*
G01X7391400Y5412994D01*
G01X7391400Y5403850D01*
G01X7394702Y5388356D01*
G01X7400798Y5379212D01*
G01X7409942Y5376164D01*
G01X7416292Y5376164D01*
G01X7425436Y5379212D01*
G01X7431532Y5388356D01*
G01X7434834Y5403850D01*
G01X7434834Y5412994D01*
G01X7431532Y5428488D01*
G01X7425436Y5437886D01*
G01X7416292Y5440934D01*
G01X7409942Y5440934D01*
G01X6357874Y5682234D02*
G01X6357874Y5617464D01*
G01X6357874Y5682234D02*
G01X6385560Y5682234D01*
G01X6394704Y5679186D01*
G01X6398006Y5676138D01*
G01X6401054Y5669788D01*
G01X6401054Y5663692D01*
G01X6398006Y5657596D01*
G01X6394704Y5654294D01*
G01X6385560Y5651246D01*
G01X6357874Y5651246D01*
G01X6379464Y5651246D02*
G01X6401054Y5617464D01*
G01X6431280Y5669788D02*
G01X6437630Y5672836D01*
G01X6446774Y5682234D01*
G01X6446774Y5617464D01*
G01X6492494Y5682234D02*
G01X6483350Y5679186D01*
G01X6480302Y5672836D01*
G01X6480302Y5666740D01*
G01X6483350Y5660644D01*
G01X6489446Y5657596D01*
G01X6501892Y5654294D01*
G01X6511036Y5651246D01*
G01X6517132Y5645150D01*
G01X6520434Y5639054D01*
G01X6520434Y5629656D01*
G01X6517132Y5623560D01*
G01X6514084Y5620512D01*
G01X6504940Y5617464D01*
G01X6492494Y5617464D01*
G01X6483350Y5620512D01*
G01X6480302Y5623560D01*
G01X6477000Y5629656D01*
G01X6477000Y5639054D01*
G01X6480302Y5645150D01*
G01X6486398Y5651246D01*
G01X6495542Y5654294D01*
G01X6507988Y5657596D01*
G01X6514084Y5660644D01*
G01X6517132Y5666740D01*
G01X6517132Y5672836D01*
G01X6514084Y5679186D01*
G01X6504940Y5682234D01*
G01X6492494Y5682234D01*
G01X1023874Y2812034D02*
G01X1023874Y2747264D01*
G01X1023874Y2812034D02*
G01X1051560Y2812034D01*
G01X1060704Y2808986D01*
G01X1064006Y2805938D01*
G01X1067054Y2799588D01*
G01X1067054Y2793492D01*
G01X1064006Y2787396D01*
G01X1060704Y2784094D01*
G01X1051560Y2781046D01*
G01X1023874Y2781046D01*
G01X1045464Y2781046D02*
G01X1067054Y2747264D01*
G01X1097280Y2799588D02*
G01X1103630Y2802636D01*
G01X1112774Y2812034D01*
G01X1112774Y2747264D01*
G01X1183132Y2790444D02*
G01X1180084Y2781046D01*
G01X1173988Y2774950D01*
G01X1164590Y2771902D01*
G01X1161542Y2771902D01*
G01X1152398Y2774950D01*
G01X1146302Y2781046D01*
G01X1143000Y2790444D01*
G01X1143000Y2793492D01*
G01X1146302Y2802636D01*
G01X1152398Y2808986D01*
G01X1161542Y2812034D01*
G01X1164590Y2812034D01*
G01X1173988Y2808986D01*
G01X1180084Y2802636D01*
G01X1183132Y2790444D01*
G01X1183132Y2774950D01*
G01X1180084Y2759456D01*
G01X1173988Y2750312D01*
G01X1164590Y2747264D01*
G01X1158494Y2747264D01*
G01X1149350Y2750312D01*
G01X1146302Y2756408D01*
G01X1265174Y2812034D02*
G01X1265174Y2747264D01*
G01X1265174Y2812034D02*
G01X1292860Y2812034D01*
G01X1302004Y2808986D01*
G01X1305306Y2805938D01*
G01X1308354Y2799588D01*
G01X1308354Y2793492D01*
G01X1305306Y2787396D01*
G01X1302004Y2784094D01*
G01X1292860Y2781046D01*
G01X1265174Y2781046D01*
G01X1286764Y2781046D02*
G01X1308354Y2747264D01*
G01X1338580Y2799588D02*
G01X1344930Y2802636D01*
G01X1354074Y2812034D01*
G01X1354074Y2747264D01*
G01X1387602Y2796540D02*
G01X1387602Y2799588D01*
G01X1390650Y2805938D01*
G01X1393698Y2808986D01*
G01X1399794Y2812034D01*
G01X1412240Y2812034D01*
G01X1418336Y2808986D01*
G01X1421384Y2805938D01*
G01X1424432Y2799588D01*
G01X1424432Y2793492D01*
G01X1421384Y2787396D01*
G01X1415288Y2777998D01*
G01X1384300Y2747264D01*
G01X1427734Y2747264D01*
G01X7450074Y2164334D02*
G01X7450074Y2099564D01*
G01X7450074Y2164334D02*
G01X7477760Y2164334D01*
G01X7486904Y2161286D01*
G01X7490206Y2158238D01*
G01X7493254Y2151888D01*
G01X7493254Y2145792D01*
G01X7490206Y2139696D01*
G01X7486904Y2136394D01*
G01X7477760Y2133346D01*
G01X7450074Y2133346D01*
G01X7471664Y2133346D02*
G01X7493254Y2099564D01*
G01X7542022Y2164334D02*
G01X7535926Y2161286D01*
G01X7529830Y2154936D01*
G01X7526782Y2148840D01*
G01X7523480Y2139696D01*
G01X7523480Y2124202D01*
G01X7526782Y2114804D01*
G01X7529830Y2108708D01*
G01X7535926Y2102612D01*
G01X7542022Y2099564D01*
G01X7554468Y2099564D01*
G01X7560564Y2102612D01*
G01X7566914Y2108708D01*
G01X7569962Y2114804D01*
G01X7573010Y2124202D01*
G01X7573010Y2139696D01*
G01X7569962Y2148840D01*
G01X7566914Y2154936D01*
G01X7560564Y2161286D01*
G01X7554468Y2164334D01*
G01X7542022Y2164334D01*
G01X7624826Y2164334D02*
G01X7624826Y2099564D01*
G01X7603236Y2164334D02*
G01X7646670Y2164334D01*
G01X7676896Y2077974D02*
G01X7732522Y2077974D01*
G01X7762748Y2164334D02*
G01X7762748Y2099564D01*
G01X7762748Y2164334D02*
G01X7802880Y2164334D01*
G01X7762748Y2133346D02*
G01X7787640Y2133346D01*
G01X7762748Y2099564D02*
G01X7802880Y2099564D01*
G01X7833106Y2164334D02*
G01X7833106Y2099564D01*
G01X7833106Y2164334D02*
G01X7876540Y2099564D01*
G01X7876540Y2164334D02*
G01X7876540Y2099564D01*
G01X7953248Y2148840D02*
G01X7950200Y2154936D01*
G01X7943850Y2161286D01*
G01X7937754Y2164334D01*
G01X7925308Y2164334D01*
G01X7919212Y2161286D01*
G01X7913116Y2154936D01*
G01X7910068Y2148840D01*
G01X7906766Y2139696D01*
G01X7906766Y2124202D01*
G01X7910068Y2114804D01*
G01X7913116Y2108708D01*
G01X7919212Y2102612D01*
G01X7925308Y2099564D01*
G01X7937754Y2099564D01*
G01X7943850Y2102612D01*
G01X7950200Y2108708D01*
G01X7953248Y2114804D01*
G01X7983474Y2151888D02*
G01X7989824Y2154936D01*
G01X7998968Y2164334D01*
G01X7998968Y2099564D01*
G04 Text End*

G04 PolygonModel Start*
G54D12*
G01X2902204Y5195801D02*
G01X6902196Y5195799D01*
G01X6902196Y5195801D02*
G01X6902196Y3795801D01*
G01X6902196Y3795799D02*
G01X2902204Y3795801D01*
G01X2902204Y3795799D02*
G01X2902204Y5195799D01*
G01X4132202Y4895799D02*
G01X4772200Y4895799D01*
G01X4772200Y4895799D02*
G01X4632201Y4085801D01*
G01X4632201Y4085801D02*
G01X3992202Y4085801D01*
G01X3992202Y4085801D02*
G01X4132202Y4895799D01*
G01X4202201Y4825799D02*
G01X4682200Y4825799D01*
G01X4682200Y4825799D02*
G01X4632201Y4545800D01*
G01X4632201Y4545800D02*
G01X4152202Y4545800D01*
G01X4152202Y4545800D02*
G01X4202201Y4825799D01*
G01X4137203Y4445800D02*
G01X4617202Y4445800D01*
G01X4617202Y4445800D02*
G01X4567202Y4165801D01*
G01X4567202Y4165801D02*
G01X4087203Y4165801D01*
G01X4087203Y4165801D02*
G01X4137203Y4445800D01*
G01X5165626Y4897374D02*
G01X5805625Y4897374D01*
G01X5805625Y4897374D02*
G01X5665625Y4087376D01*
G01X5665625Y4087376D02*
G01X5025626Y4087376D01*
G01X5025626Y4087376D02*
G01X5165626Y4897374D01*
G01X5235626Y4827374D02*
G01X5715625Y4827374D01*
G01X5715625Y4827374D02*
G01X5665625Y4547375D01*
G01X5665625Y4547375D02*
G01X5185626Y4547375D01*
G01X5185626Y4547375D02*
G01X5235626Y4827374D01*
G01X5170627Y4447375D02*
G01X5650626Y4447375D01*
G01X5650626Y4447375D02*
G01X5600626Y4167375D01*
G01X5600626Y4167375D02*
G01X5120627Y4167375D01*
G01X5120627Y4167375D02*
G01X5170627Y4447375D01*
G01X6115624Y4887374D02*
G01X6755623Y4887374D01*
G01X6755623Y4887374D02*
G01X6615623Y4077376D01*
G01X6615623Y4077376D02*
G01X5975624Y4077376D01*
G01X5975624Y4077376D02*
G01X6115624Y4887374D01*
G01X6185624Y4817374D02*
G01X6665623Y4817374D01*
G01X6665623Y4817374D02*
G01X6615623Y4537375D01*
G01X6615623Y4537375D02*
G01X6135624Y4537375D01*
G01X6135624Y4537375D02*
G01X6185624Y4817374D01*
G01X6120625Y4437375D02*
G01X6600624Y4437375D01*
G01X6600624Y4437375D02*
G01X6550624Y4157375D01*
G01X6550624Y4157375D02*
G01X6070625Y4157375D01*
G01X6070625Y4157375D02*
G01X6120625Y4437375D01*
G01X3185630Y4907374D02*
G01X3825629Y4907374D01*
G01X3825629Y4907374D02*
G01X3685629Y4097376D01*
G01X3685629Y4097376D02*
G01X3045630Y4097376D01*
G01X3045630Y4097376D02*
G01X3185630Y4907374D01*
G01X3255630Y4837374D02*
G01X3735629Y4837374D01*
G01X3735629Y4837374D02*
G01X3685629Y4557375D01*
G01X3685629Y4557375D02*
G01X3205630Y4557375D01*
G01X3205630Y4557375D02*
G01X3255630Y4837374D01*
G01X3190631Y4457375D02*
G01X3670630Y4457375D01*
G01X3670630Y4457375D02*
G01X3620630Y4177375D01*
G01X3620630Y4177375D02*
G01X3140631Y4177375D01*
G01X3140631Y4177375D02*
G01X3190631Y4457375D01*
G01X7770960Y1730695D02*
G01X7621440Y1730695D01*
G01X8286199Y1304503D02*
G01X8286199Y1730695D01*
G01X8286199Y530695D02*
G01X8286199Y956884D01*
G01X8017825Y530695D02*
G01X8286199Y530695D01*
G01X7517826Y530695D02*
G01X7874574Y530695D01*
G01X7106201Y530695D02*
G01X7374575Y530695D01*
G01X7106201Y1304503D02*
G01X7106201Y1730693D01*
G01X7106201Y530695D02*
G01X7106201Y956884D01*
G01X7621440Y1730695D02*
G01X7106201Y1730695D01*
G01X8286199Y1730695D02*
G01X7770960Y1730695D01*
G01X1867789Y1442999D02*
G01X2348611Y1442999D01*
G01X2408199Y1257691D02*
G01X2408199Y1028309D01*
G01X2348611Y843001D02*
G01X1867789Y843001D01*
G01X1808201Y1028309D02*
G01X1808201Y1257691D01*
G01X2204613Y3413807D02*
G01X2124616Y3413807D01*
G01X2260658Y3413762D02*
G01X2340656Y3413762D01*
G01X2204613Y3555775D02*
G01X2124616Y3555775D01*
G01X2260658Y3555727D02*
G01X2340656Y3555727D01*
G01X2093641Y3444790D02*
G01X2093641Y3524795D01*
G01X2371634Y3524742D02*
G01X2371634Y3444739D01*
G01X2340651Y3555727D02*
G02X2371634Y3524742I0J-30983D01*
G01X2371634Y3444744D02*
G02X2340651Y3413762I-30983J0D01*
G01X2124621Y3413807D02*
G02X2093641Y3444790I3J30983D01*
G01X2093641Y3524787D02*
G02X2124621Y3555775I30983J5D01*
G01X2936113Y5410987D02*
G01X2936113Y5512587D01*
G01X2886100Y5462600D02*
G01X2987700Y5462600D01*
G36*
G01X2921000Y5742000D02*
G02X3251200Y5742000I165100J-157746D01*
G01X2921000Y5742000D01*
G37*
G01X1929251Y3235863D02*
G01X2001093Y3164021D01*
G01X2001111Y3234732D02*
G01X1929268Y3162890D01*
G36*
G01X2173998Y3012488D02*
G02X1940512Y2779002I-228287J-5200D01*
G01X2173998Y3012488D01*
G37*
G54D13*
G01X8220587Y4623475D02*
G01X8505829Y4623475D01*
G01X8220587Y4452248D02*
G01X8220587Y4971485D01*
G01X8480769Y4971196D02*
G01X8504691Y4971864D01*
G01X8220587Y4971485D02*
G01X8244509Y4972153D01*
G01X8505829Y4452248D02*
G01X8505829Y4971485D01*
G36*
G01X8212967Y4459866D02*
G01X8253627Y4459734D01*
G01X8253175Y4413780D01*
G01X8212967Y4414146D01*
G01X8212967Y4459866D01*
G37*
G36*
G01X8472804Y4460689D02*
G01X8513464Y4460556D01*
G01X8513012Y4414603D01*
G01X8472804Y4414969D01*
G01X8472804Y4460689D01*
G37*
G01X7826779Y4533679D02*
G01X7972021Y4533679D01*
G01X7972021Y4533679D02*
G01X7972021Y4636841D01*
G01X7826779Y4838921D02*
G01X7972021Y4838921D01*
G01X7972021Y4838921D02*
G01X7972021Y4735759D01*
G01X7826779Y4640760D02*
G01X7826779Y4731840D01*
G01X793791Y3156080D02*
G01X793791Y3020088D01*
G01X793791Y3020088D02*
G01X1009609Y3020088D01*
G01X1009609Y3020088D02*
G01X1009609Y3156080D01*
G01X793791Y3346320D02*
G01X793791Y3482312D01*
G01X793791Y3482312D02*
G01X1009609Y3482312D01*
G01X1009609Y3482312D02*
G01X1009609Y3346320D01*
G01X1250991Y3156080D02*
G01X1250991Y3020088D01*
G01X1250991Y3020088D02*
G01X1466809Y3020088D01*
G01X1466809Y3020088D02*
G01X1466809Y3156080D01*
G01X1250991Y3346320D02*
G01X1250991Y3482312D01*
G01X1250991Y3482312D02*
G01X1466809Y3482312D01*
G01X1466809Y3482312D02*
G01X1466809Y3346320D01*
G01X1600498Y5712302D02*
G01X1600498Y5576310D01*
G01X1600498Y5576310D02*
G01X1816317Y5576310D01*
G01X1816317Y5576310D02*
G01X1816317Y5712302D01*
G01X1600498Y5902542D02*
G01X1600498Y6038534D01*
G01X1600498Y6038534D02*
G01X1816317Y6038534D01*
G01X1816317Y6038534D02*
G01X1816317Y5902542D01*
G01X1841798Y5710643D02*
G01X1841798Y5574651D01*
G01X1841798Y5574651D02*
G01X2057617Y5574651D01*
G01X2057617Y5574651D02*
G01X2057617Y5710643D01*
G01X1841798Y5900884D02*
G01X1841798Y6036875D01*
G01X1841798Y6036875D02*
G01X2057617Y6036875D01*
G01X2057617Y6036875D02*
G01X2057617Y5900884D01*
G01X2083098Y5708984D02*
G01X2083098Y5572993D01*
G01X2083098Y5572993D02*
G01X2298917Y5572993D01*
G01X2298917Y5572993D02*
G01X2298917Y5708984D01*
G01X2083098Y5899225D02*
G01X2083098Y6035217D01*
G01X2083098Y6035217D02*
G01X2298917Y6035217D01*
G01X2298917Y6035217D02*
G01X2298917Y5899225D01*
G01X7739281Y5100807D02*
G01X7739281Y4964815D01*
G01X7739281Y4964815D02*
G01X7955100Y4964815D01*
G01X7955100Y4964815D02*
G01X7955100Y5100807D01*
G01X7739281Y5291048D02*
G01X7739281Y5427039D01*
G01X7739281Y5427039D02*
G01X7955100Y5427039D01*
G01X7955100Y5427039D02*
G01X7955100Y5291048D01*
G54D12*
G01X1005525Y3721100D02*
G01X991753Y3721100D01*
G01X1205525Y3721100D02*
G01X1191753Y3721100D01*
G01X1405524Y3721100D02*
G01X1391752Y3721100D01*
G01X1605524Y3721100D02*
G01X1591752Y3721100D01*
G01X1805523Y3721100D02*
G01X1791752Y3721100D01*
G01X2005523Y3721100D02*
G01X1991751Y3721100D01*
G01X2205523Y3721100D02*
G01X2191751Y3721100D01*
G01X2448395Y3928087D02*
G01X2448395Y3721100D01*
G01X2448395Y3721100D02*
G01X2391750Y3721100D01*
G01X2448395Y4127884D02*
G01X2448395Y4114315D01*
G01X2448395Y4327756D02*
G01X2448395Y4314111D01*
G01X2448395Y4527832D02*
G01X2448395Y4513984D01*
G01X2448395Y4727755D02*
G01X2448395Y4714060D01*
G01X2448395Y4927755D02*
G01X2448395Y4913983D01*
G01X2391750Y5321046D02*
G01X2448395Y5321046D01*
G01X2448395Y5321046D02*
G01X2448395Y5113983D01*
G01X2191751Y5321046D02*
G01X2205523Y5321046D01*
G01X1991751Y5321046D02*
G01X2005523Y5321046D01*
G01X1791752Y5321046D02*
G01X1805523Y5321046D01*
G01X1591752Y5321046D02*
G01X1605524Y5321046D01*
G01X1391752Y5321046D02*
G01X1405524Y5321046D01*
G01X1191753Y5321046D02*
G01X1205525Y5321046D01*
G01X991753Y5321046D02*
G01X1005525Y5321046D01*
G01X805525Y3721100D02*
G01X48618Y3721100D01*
G01X48618Y5321046D02*
G01X805525Y5321046D01*
G01X648617Y5021047D02*
G01X648617Y4021049D01*
G01X648617Y4021049D02*
G01X148618Y4021049D01*
G01X148618Y4021049D02*
G01X148618Y4121048D01*
G01X148618Y4121048D02*
G01X448617Y4121048D01*
G01X448617Y4121048D02*
G01X448617Y4221048D01*
G01X448617Y4221048D02*
G01X148618Y4221048D01*
G01X148618Y4221048D02*
G01X148618Y4321048D01*
G01X148618Y4321048D02*
G01X448617Y4321048D01*
G01X448617Y4321048D02*
G01X448617Y4421048D01*
G01X448617Y4421048D02*
G01X148618Y4421048D01*
G01X148618Y4421048D02*
G01X148618Y4521048D01*
G01X148618Y4521048D02*
G01X448617Y4521048D01*
G01X448617Y4521048D02*
G01X448617Y4621047D01*
G01X448617Y4621047D02*
G01X148618Y4621047D01*
G01X148618Y4621047D02*
G01X148618Y5221046D01*
G01X948616Y3921049D02*
G01X2248614Y3921049D01*
G01X2248614Y3921049D02*
G01X2248614Y5121046D01*
G01X2248614Y5121046D02*
G01X948616Y5121046D01*
G01X948616Y5121046D02*
G01X948616Y3921049D01*
G01X748617Y3821049D02*
G01X748617Y5221046D01*
G01X48618Y3721049D02*
G01X48618Y5321046D01*
G54D13*
G01X4195735Y6098421D02*
G01X4195735Y5433179D01*
G01X4195735Y5433179D02*
G01X3901455Y5433179D01*
G01X3901455Y5433179D02*
G01X3901455Y6098421D01*
G01X3901455Y6098421D02*
G01X4195735Y6098421D01*
G54D12*
G01X7061401Y5502585D02*
G01X7061401Y5497711D01*
G01X7061401Y5756585D02*
G01X7061401Y5698813D01*
G01X7061401Y5957715D02*
G01X7061401Y5952813D01*
G01X7721404Y5502585D02*
G01X7721404Y5497711D01*
G01X7721404Y5756585D02*
G01X7721404Y5698813D01*
G01X7721404Y5957715D02*
G01X7721404Y5952813D01*
G01X7721404Y5497711D02*
G01X7061401Y5497711D01*
G01X7061401Y5957715D02*
G01X7721404Y5957715D01*
G54D13*
G01X6534020Y5746791D02*
G01X6670012Y5746791D01*
G01X6670012Y5746791D02*
G01X6670012Y5962609D01*
G01X6670012Y5962609D02*
G01X6534020Y5962609D01*
G01X6343780Y5746791D02*
G01X6207788Y5746791D01*
G01X6207788Y5746791D02*
G01X6207788Y5962609D01*
G01X6207788Y5962609D02*
G01X6343780Y5962609D01*
G01X1238209Y3346320D02*
G01X1238209Y3482312D01*
G01X1238209Y3482312D02*
G01X1022391Y3482312D01*
G01X1022391Y3482312D02*
G01X1022391Y3346320D01*
G01X1238209Y3156080D02*
G01X1238209Y3020088D01*
G01X1238209Y3020088D02*
G01X1022391Y3020088D01*
G01X1022391Y3020088D02*
G01X1022391Y3156080D01*

G04 Rect Start*
G54D12*
G01X3047900Y1947600D02*
G01X2747900Y1947600D01*
G01X2747900Y3497600D01*
G01X3047900Y3497600D01*
G01X3047900Y1947600D01*
G04 Rect End*

G04 Circle Start*
G01X4879238Y4655642D02*
G03X4985563Y4655642I53162J0D01*
G03X4879238Y4655642I-53162J0D01*
G01X4819040Y4365803D02*
G03X4925365Y4365803I53162J0D01*
G03X4819040Y4365803I-53162J0D01*
G01X4739030Y4125798D02*
G03X4845355Y4125798I53162J0D01*
G03X4739030Y4125798I-53162J0D01*
G01X5772455Y4127373D02*
G03X5878779Y4127373I53162J0D01*
G03X5772455Y4127373I-53162J0D01*
G01X6722466Y4117365D02*
G03X6828790Y4117365I53162J0D01*
G03X6722466Y4117365I-53162J0D01*
G01X3792474Y4137381D02*
G03X3898798Y4137381I53162J0D01*
G03X3792474Y4137381I-53162J0D01*
G01X7446188Y1130694D02*
G03X7946212Y1130694I250012J0D01*
G03X7446188Y1130694I-250012J0D01*
G01X1928190Y1143000D02*
G03X2288210Y1143000I180010J0D01*
G03X1928190Y1143000I-180010J0D01*
G01X2243480Y1322984D02*
G03X2332939Y1322984I44729J0D01*
G03X2243480Y1322984I-44729J0D01*
G01X1883461Y1323010D02*
G03X1972920Y1323010I44729J0D01*
G03X1883461Y1323010I-44729J0D01*
G01X1883461Y962990D02*
G03X1972920Y962990I44729J0D01*
G03X1883461Y962990I-44729J0D01*
G01X2243480Y962990D02*
G03X2332939Y962990I44729J0D01*
G03X2243480Y962990I-44729J0D01*
G54D14*
G01X2836088Y5562600D02*
G03X3336112Y5562600I250012J0D01*
G03X2836088Y5562600I-250012J0D01*
G01X1680388Y3022600D02*
G03X2180412Y3022600I250012J0D01*
G03X1680388Y3022600I-250012J0D01*
G54D12*
G01X720890Y3657600D02*
G03X777685Y3657600I28397J0D01*
G03X720890Y3657600I-28397J0D01*
G54D14*
G01X6969989Y5981700D02*
G03X7000011Y5981700I15011J0D01*
G03X6969989Y5981700I-15011J0D01*
G01X7122389Y5892800D02*
G03X7152411Y5892800I15011J0D01*
G03X7122389Y5892800I-15011J0D01*
G04 Circle End*

M02*

