G04 Layer: BottomSilkscreenLayer*
G04 EasyEDA Pro v2.2.43.4, 2025-12-14 11:37:12*
G04 Gerber Generator version 0.3*
G04 Scale: 100 percent, Rotated: No, Reflected: No*
G04 Dimensions in millimeters*
G04 Leading zeros omitted, absolute positions, 4 integers and 5 decimals*
G04 Generated by one-click*
%FSLAX45Y45*%
%MOMM*%
%ADD10C,0.155*%
%ADD11C,0.2032*%
%ADD12C,0.3*%
%ADD13C,0.16*%
%ADD14C,0.254*%
%ADD15C,0.1524*%
%ADD16C,0.5057*%
%ADD17C,0.5*%
G75*


G04 Text Start*
G54D10*
G01X2647620Y3380256D02*
G01X2642540Y3382796D01*
G01X2637206Y3388130D01*
G01X2634412Y3393464D01*
G01X2634412Y3403878D01*
G01X2637206Y3409212D01*
G01X2642540Y3414546D01*
G01X2647620Y3417086D01*
G01X2655748Y3419626D01*
G01X2668956Y3419626D01*
G01X2676830Y3417086D01*
G01X2682164Y3414546D01*
G01X2687244Y3409212D01*
G01X2690038Y3403878D01*
G01X2690038Y3393464D01*
G01X2687244Y3388130D01*
G01X2682164Y3382796D01*
G01X2676830Y3380256D01*
G01X2668956Y3380256D01*
G01X2668956Y3393464D02*
G01X2668956Y3380256D01*
G01X2634412Y3352062D02*
G01X2690038Y3352062D01*
G01X2634412Y3352062D02*
G01X2690038Y3315232D01*
G01X2634412Y3315232D02*
G01X2690038Y3315232D01*
G01X2634412Y3287038D02*
G01X2690038Y3287038D01*
G01X2634412Y3287038D02*
G01X2634412Y3268496D01*
G01X2637206Y3260622D01*
G01X2642540Y3255288D01*
G01X2647620Y3252748D01*
G01X2655748Y3250208D01*
G01X2668956Y3250208D01*
G01X2676830Y3252748D01*
G01X2682164Y3255288D01*
G01X2687244Y3260622D01*
G01X2690038Y3268496D01*
G01X2690038Y3287038D01*
G01X2634412Y2926358D02*
G01X2690038Y2905276D01*
G01X2634412Y2883940D02*
G01X2690038Y2905276D01*
G01X2634412Y2855746D02*
G01X2690038Y2855746D01*
G01X2634412Y2855746D02*
G01X2634412Y2837204D01*
G01X2637206Y2829330D01*
G01X2642540Y2823996D01*
G01X2647620Y2821456D01*
G01X2655748Y2818916D01*
G01X2668956Y2818916D01*
G01X2676830Y2821456D01*
G01X2682164Y2823996D01*
G01X2687244Y2829330D01*
G01X2690038Y2837204D01*
G01X2690038Y2855746D01*
G01X2634412Y2790722D02*
G01X2690038Y2790722D01*
G01X2634412Y2790722D02*
G01X2634412Y2772180D01*
G01X2637206Y2764306D01*
G01X2642540Y2758972D01*
G01X2647620Y2756432D01*
G01X2655748Y2753892D01*
G01X2668956Y2753892D01*
G01X2676830Y2756432D01*
G01X2682164Y2758972D01*
G01X2687244Y2764306D01*
G01X2690038Y2772180D01*
G01X2690038Y2790722D01*
G01X2634412Y2607334D02*
G01X2690038Y2607334D01*
G01X2634412Y2607334D02*
G01X2634412Y2583712D01*
G01X2637206Y2575838D01*
G01X2639746Y2573044D01*
G01X2645080Y2570504D01*
G01X2650414Y2570504D01*
G01X2655748Y2573044D01*
G01X2658288Y2575838D01*
G01X2660828Y2583712D01*
G01X2660828Y2607334D01*
G01X2660828Y2589046D02*
G01X2690038Y2570504D01*
G01X2634412Y2542310D02*
G01X2690038Y2505480D01*
G01X2634412Y2505480D02*
G01X2690038Y2542310D01*
G01X2634412Y2399562D02*
G01X2690038Y2399562D01*
G01X2634412Y2418104D02*
G01X2634412Y2381274D01*
G01X2634412Y2353080D02*
G01X2690038Y2316250D01*
G01X2634412Y2316250D02*
G01X2690038Y2353080D01*
G01X2634412Y2169692D02*
G01X2690038Y2169692D01*
G01X2634412Y2169692D02*
G01X2634412Y2146070D01*
G01X2637206Y2138196D01*
G01X2639746Y2135402D01*
G01X2645080Y2132862D01*
G01X2650414Y2132862D01*
G01X2655748Y2135402D01*
G01X2658288Y2138196D01*
G01X2660828Y2146070D01*
G01X2660828Y2169692D01*
G01X2660828Y2151404D02*
G01X2690038Y2132862D01*
G01X2642540Y2067838D02*
G01X2637206Y2072918D01*
G01X2634412Y2081046D01*
G01X2634412Y2091460D01*
G01X2637206Y2099334D01*
G01X2642540Y2104668D01*
G01X2647620Y2104668D01*
G01X2652954Y2102128D01*
G01X2655748Y2099334D01*
G01X2658288Y2094000D01*
G01X2663622Y2078252D01*
G01X2666162Y2072918D01*
G01X2668956Y2070378D01*
G01X2674036Y2067838D01*
G01X2682164Y2067838D01*
G01X2687244Y2072918D01*
G01X2690038Y2081046D01*
G01X2690038Y2091460D01*
G01X2687244Y2099334D01*
G01X2682164Y2104668D01*
G01X2634412Y2021102D02*
G01X2690038Y2021102D01*
G01X2634412Y2039644D02*
G01X2634412Y2002814D01*
G54D11*
G01X1230998Y5331231D02*
G01X1128128Y5331231D01*
G01X1179690Y5279669D02*
G01X1179690Y5382539D01*
G01X1248270Y5430291D02*
G01X1128128Y5476011D01*
G01X1248270Y5521731D02*
G01X1128128Y5476011D01*
G01X379692Y5279669D02*
G01X379692Y5382539D01*
G01X448272Y5430291D02*
G01X328130Y5476011D01*
G01X448272Y5521731D02*
G01X328130Y5476011D01*
G01X451777Y2165401D02*
G01X331635Y2119681D01*
G01X451777Y2165401D02*
G01X331635Y2211121D01*
G01X371767Y2136953D02*
G01X371767Y2194103D01*
G01X423075Y2344725D02*
G01X434505Y2338883D01*
G01X445935Y2327453D01*
G01X451777Y2316023D01*
G01X451777Y2293163D01*
G01X445935Y2281733D01*
G01X434505Y2270303D01*
G01X423075Y2264715D01*
G01X406057Y2258873D01*
G01X377355Y2258873D01*
G01X360337Y2264715D01*
G01X348907Y2270303D01*
G01X337477Y2281733D01*
G01X331635Y2293163D01*
G01X331635Y2316023D01*
G01X337477Y2327453D01*
G01X348907Y2338883D01*
G01X360337Y2344725D01*
G01X474637Y2495347D02*
G01X291757Y2392477D01*
G01X451777Y2543099D02*
G01X331635Y2543099D01*
G01X331635Y2543099D02*
G01X331635Y2611679D01*
G01X1526781Y2165401D02*
G01X1406639Y2119681D01*
G01X1526781Y2165401D02*
G01X1406639Y2211121D01*
G01X1446771Y2136953D02*
G01X1446771Y2194103D01*
G01X1498079Y2344725D02*
G01X1509509Y2338883D01*
G01X1520939Y2327453D01*
G01X1526781Y2316023D01*
G01X1526781Y2293163D01*
G01X1520939Y2281733D01*
G01X1509509Y2270303D01*
G01X1498079Y2264715D01*
G01X1481061Y2258873D01*
G01X1452359Y2258873D01*
G01X1435341Y2264715D01*
G01X1423911Y2270303D01*
G01X1412481Y2281733D01*
G01X1406639Y2293163D01*
G01X1406639Y2316023D01*
G01X1412481Y2327453D01*
G01X1423911Y2338883D01*
G01X1435341Y2344725D01*
G01X1549641Y2495347D02*
G01X1366761Y2392477D01*
G01X1526781Y2543099D02*
G01X1406639Y2543099D01*
G01X1526781Y2543099D02*
G01X1406639Y2623109D01*
G01X1526781Y2623109D02*
G01X1406639Y2623109D01*
G54D10*
G01X1046226Y170434D02*
G01X1046226Y105664D01*
G01X1046226Y170434D02*
G01X1003046Y105664D01*
G01X1003046Y170434D02*
G01X1003046Y105664D01*
G01X972820Y157988D02*
G01X966470Y161036D01*
G01X957326Y170434D01*
G01X957326Y105664D01*
G01X284226Y170434D02*
G01X284226Y105664D01*
G01X284226Y105664D02*
G01X247396Y105664D01*
G01X217170Y157988D02*
G01X210820Y161036D01*
G01X201676Y170434D01*
G01X201676Y105664D01*
G01X4060698Y891540D02*
G01X4063746Y897636D01*
G01X4070096Y903986D01*
G01X4076192Y907034D01*
G01X4088638Y907034D01*
G01X4094734Y903986D01*
G01X4100830Y897636D01*
G01X4103878Y891540D01*
G01X4106926Y882396D01*
G01X4106926Y866902D01*
G01X4103878Y857504D01*
G01X4100830Y851408D01*
G01X4094734Y845312D01*
G01X4088638Y842264D01*
G01X4076192Y842264D01*
G01X4070096Y845312D01*
G01X4063746Y851408D01*
G01X4060698Y857504D01*
G01X4030472Y894588D02*
G01X4024122Y897636D01*
G01X4014978Y907034D01*
G01X4014978Y842264D01*
G01X3311398Y891540D02*
G01X3314446Y897636D01*
G01X3320796Y903986D01*
G01X3326892Y907034D01*
G01X3339338Y907034D01*
G01X3345434Y903986D01*
G01X3351530Y897636D01*
G01X3354578Y891540D01*
G01X3357626Y882396D01*
G01X3357626Y866902D01*
G01X3354578Y857504D01*
G01X3351530Y851408D01*
G01X3345434Y845312D01*
G01X3339338Y842264D01*
G01X3326892Y842264D01*
G01X3320796Y845312D01*
G01X3314446Y851408D01*
G01X3311398Y857504D01*
G01X3277870Y891540D02*
G01X3277870Y894588D01*
G01X3274822Y900938D01*
G01X3271774Y903986D01*
G01X3265678Y907034D01*
G01X3253232Y907034D01*
G01X3247136Y903986D01*
G01X3244088Y900938D01*
G01X3241040Y894588D01*
G01X3241040Y888492D01*
G01X3244088Y882396D01*
G01X3250184Y872998D01*
G01X3281172Y842264D01*
G01X3237738Y842264D01*
G01X6532626Y1567434D02*
G01X6532626Y1502664D01*
G01X6532626Y1567434D02*
G01X6504940Y1567434D01*
G01X6495796Y1564386D01*
G01X6492494Y1561338D01*
G01X6489446Y1554988D01*
G01X6489446Y1548892D01*
G01X6492494Y1542796D01*
G01X6495796Y1539494D01*
G01X6504940Y1536446D01*
G01X6532626Y1536446D01*
G01X6511036Y1536446D02*
G01X6489446Y1502664D01*
G01X6459220Y1554988D02*
G01X6452870Y1558036D01*
G01X6443726Y1567434D01*
G01X6443726Y1502664D01*
G01X4030726Y1669034D02*
G01X3987546Y1604264D01*
G01X3987546Y1669034D02*
G01X4030726Y1604264D01*
G01X3957320Y1656588D02*
G01X3950970Y1659636D01*
G01X3941826Y1669034D01*
G01X3941826Y1604264D01*
G01X4822698Y1056640D02*
G01X4825746Y1062736D01*
G01X4832096Y1069086D01*
G01X4838192Y1072134D01*
G01X4850638Y1072134D01*
G01X4856734Y1069086D01*
G01X4862830Y1062736D01*
G01X4865878Y1056640D01*
G01X4868926Y1047496D01*
G01X4868926Y1032002D01*
G01X4865878Y1022604D01*
G01X4862830Y1016508D01*
G01X4856734Y1010412D01*
G01X4850638Y1007364D01*
G01X4838192Y1007364D01*
G01X4832096Y1010412D01*
G01X4825746Y1016508D01*
G01X4822698Y1022604D01*
G01X4755388Y1062736D02*
G01X4758436Y1069086D01*
G01X4767580Y1072134D01*
G01X4773930Y1072134D01*
G01X4783074Y1069086D01*
G01X4789170Y1059688D01*
G01X4792472Y1044194D01*
G01X4792472Y1028954D01*
G01X4789170Y1016508D01*
G01X4783074Y1010412D01*
G01X4773930Y1007364D01*
G01X4770882Y1007364D01*
G01X4761484Y1010412D01*
G01X4755388Y1016508D01*
G01X4752340Y1025906D01*
G01X4752340Y1028954D01*
G01X4755388Y1038098D01*
G01X4761484Y1044194D01*
G01X4770882Y1047496D01*
G01X4773930Y1047496D01*
G01X4783074Y1044194D01*
G01X4789170Y1038098D01*
G01X4792472Y1028954D01*
G01X8209026Y2372296D02*
G01X8209026Y2307526D01*
G01X8209026Y2372296D02*
G01X8181340Y2372296D01*
G01X8172196Y2369248D01*
G01X8168894Y2366200D01*
G01X8165846Y2359850D01*
G01X8165846Y2353754D01*
G01X8168894Y2347658D01*
G01X8172196Y2344356D01*
G01X8181340Y2341308D01*
G01X8209026Y2341308D01*
G01X8187436Y2341308D02*
G01X8165846Y2307526D01*
G01X8098536Y2362898D02*
G01X8101584Y2369248D01*
G01X8110728Y2372296D01*
G01X8117078Y2372296D01*
G01X8126222Y2369248D01*
G01X8132318Y2359850D01*
G01X8135620Y2344356D01*
G01X8135620Y2329116D01*
G01X8132318Y2316670D01*
G01X8126222Y2310574D01*
G01X8117078Y2307526D01*
G01X8114030Y2307526D01*
G01X8104632Y2310574D01*
G01X8098536Y2316670D01*
G01X8095488Y2326068D01*
G01X8095488Y2329116D01*
G01X8098536Y2338260D01*
G01X8104632Y2344356D01*
G01X8114030Y2347658D01*
G01X8117078Y2347658D01*
G01X8126222Y2344356D01*
G01X8132318Y2338260D01*
G01X8135620Y2329116D01*
G01X7510526Y2380234D02*
G01X7510526Y2315464D01*
G01X7510526Y2380234D02*
G01X7482840Y2380234D01*
G01X7473696Y2377186D01*
G01X7470394Y2374138D01*
G01X7467346Y2367788D01*
G01X7467346Y2361692D01*
G01X7470394Y2355596D01*
G01X7473696Y2352294D01*
G01X7482840Y2349246D01*
G01X7510526Y2349246D01*
G01X7488936Y2349246D02*
G01X7467346Y2315464D01*
G01X7393686Y2380234D02*
G01X7424674Y2315464D01*
G01X7437120Y2380234D02*
G01X7393686Y2380234D01*
G01X6837426Y297434D02*
G01X6837426Y232664D01*
G01X6837426Y297434D02*
G01X6809740Y297434D01*
G01X6800596Y294386D01*
G01X6797294Y291338D01*
G01X6794246Y284988D01*
G01X6794246Y278892D01*
G01X6797294Y272796D01*
G01X6800596Y269494D01*
G01X6809740Y266446D01*
G01X6837426Y266446D01*
G01X6815836Y266446D02*
G01X6794246Y232664D01*
G01X6748526Y297434D02*
G01X6757670Y294386D01*
G01X6760718Y288036D01*
G01X6760718Y281940D01*
G01X6757670Y275844D01*
G01X6751574Y272796D01*
G01X6739128Y269494D01*
G01X6729984Y266446D01*
G01X6723888Y260350D01*
G01X6720586Y254254D01*
G01X6720586Y244856D01*
G01X6723888Y238760D01*
G01X6726936Y235712D01*
G01X6736080Y232664D01*
G01X6748526Y232664D01*
G01X6757670Y235712D01*
G01X6760718Y238760D01*
G01X6764020Y244856D01*
G01X6764020Y254254D01*
G01X6760718Y260350D01*
G01X6754622Y266446D01*
G01X6745478Y269494D01*
G01X6733032Y272796D01*
G01X6726936Y275844D01*
G01X6723888Y281940D01*
G01X6723888Y288036D01*
G01X6726936Y294386D01*
G01X6736080Y297434D01*
G01X6748526Y297434D01*
G01X2968498Y1513840D02*
G01X2971546Y1519936D01*
G01X2977896Y1526286D01*
G01X2983992Y1529334D01*
G01X2996438Y1529334D01*
G01X3002534Y1526286D01*
G01X3008630Y1519936D01*
G01X3011678Y1513840D01*
G01X3014726Y1504696D01*
G01X3014726Y1489202D01*
G01X3011678Y1479804D01*
G01X3008630Y1473708D01*
G01X3002534Y1467612D01*
G01X2996438Y1464564D01*
G01X2983992Y1464564D01*
G01X2977896Y1467612D01*
G01X2971546Y1473708D01*
G01X2968498Y1479804D01*
G01X2922778Y1529334D02*
G01X2931922Y1526286D01*
G01X2934970Y1519936D01*
G01X2934970Y1513840D01*
G01X2931922Y1507744D01*
G01X2925826Y1504696D01*
G01X2913380Y1501394D01*
G01X2904236Y1498346D01*
G01X2898140Y1492250D01*
G01X2894838Y1486154D01*
G01X2894838Y1476756D01*
G01X2898140Y1470660D01*
G01X2901188Y1467612D01*
G01X2910332Y1464564D01*
G01X2922778Y1464564D01*
G01X2931922Y1467612D01*
G01X2934970Y1470660D01*
G01X2938272Y1476756D01*
G01X2938272Y1486154D01*
G01X2934970Y1492250D01*
G01X2928874Y1498346D01*
G01X2919730Y1501394D01*
G01X2907284Y1504696D01*
G01X2901188Y1507744D01*
G01X2898140Y1513840D01*
G01X2898140Y1519936D01*
G01X2901188Y1526286D01*
G01X2910332Y1529334D01*
G01X2922778Y1529334D01*
G01X4488688Y2494534D02*
G01X4513326Y2429764D01*
G01X4488688Y2494534D02*
G01X4464050Y2429764D01*
G01X4504182Y2451354D02*
G01X4473194Y2451354D01*
G01X4412234Y2494534D02*
G01X4412234Y2429764D01*
G01X4433824Y2494534D02*
G01X4390390Y2494534D01*
G01X4360164Y2494534D02*
G01X4360164Y2429764D01*
G01X4360164Y2494534D02*
G01X4335272Y2429764D01*
G01X4310634Y2494534D02*
G01X4335272Y2429764D01*
G01X4310634Y2494534D02*
G01X4310634Y2429764D01*
G01X4280408Y2494534D02*
G01X4280408Y2429764D01*
G01X4280408Y2494534D02*
G01X4240276Y2494534D01*
G01X4280408Y2463546D02*
G01X4255516Y2463546D01*
G01X4280408Y2429764D02*
G01X4240276Y2429764D01*
G01X4163568Y2479040D02*
G01X4166616Y2485136D01*
G01X4172966Y2491486D01*
G01X4179062Y2494534D01*
G01X4191508Y2494534D01*
G01X4197604Y2491486D01*
G01X4203700Y2485136D01*
G01X4206748Y2479040D01*
G01X4210050Y2469896D01*
G01X4210050Y2454402D01*
G01X4206748Y2445004D01*
G01X4203700Y2438908D01*
G01X4197604Y2432812D01*
G01X4191508Y2429764D01*
G01X4179062Y2429764D01*
G01X4172966Y2432812D01*
G01X4166616Y2438908D01*
G01X4163568Y2445004D01*
G01X4163568Y2454402D01*
G01X4179062Y2454402D02*
G01X4163568Y2454402D01*
G01X4108450Y2494534D02*
G01X4133342Y2429764D01*
G01X4108450Y2494534D02*
G01X4083812Y2429764D01*
G01X4123944Y2451354D02*
G01X4093210Y2451354D01*
G01X4047236Y2494534D02*
G01X4013454Y2494534D01*
G01X4031996Y2469896D01*
G01X4022598Y2469896D01*
G01X4016502Y2466594D01*
G01X4013454Y2463546D01*
G01X4010152Y2454402D01*
G01X4010152Y2448306D01*
G01X4013454Y2438908D01*
G01X4019550Y2432812D01*
G01X4028694Y2429764D01*
G01X4038092Y2429764D01*
G01X4047236Y2432812D01*
G01X4050284Y2435860D01*
G01X4053586Y2441956D01*
G01X3976624Y2479040D02*
G01X3976624Y2482088D01*
G01X3973576Y2488438D01*
G01X3970528Y2491486D01*
G01X3964432Y2494534D01*
G01X3951986Y2494534D01*
G01X3945890Y2491486D01*
G01X3942842Y2488438D01*
G01X3939794Y2482088D01*
G01X3939794Y2475992D01*
G01X3942842Y2469896D01*
G01X3948938Y2460498D01*
G01X3979926Y2429764D01*
G01X3936492Y2429764D01*
G01X3890772Y2494534D02*
G01X3899916Y2491486D01*
G01X3902964Y2485136D01*
G01X3902964Y2479040D01*
G01X3899916Y2472944D01*
G01X3893820Y2469896D01*
G01X3881374Y2466594D01*
G01X3872230Y2463546D01*
G01X3866134Y2457450D01*
G01X3862832Y2451354D01*
G01X3862832Y2441956D01*
G01X3866134Y2435860D01*
G01X3869182Y2432812D01*
G01X3878326Y2429764D01*
G01X3890772Y2429764D01*
G01X3899916Y2432812D01*
G01X3902964Y2435860D01*
G01X3906266Y2441956D01*
G01X3906266Y2451354D01*
G01X3902964Y2457450D01*
G01X3896868Y2463546D01*
G01X3887724Y2466594D01*
G01X3875278Y2469896D01*
G01X3869182Y2472944D01*
G01X3866134Y2479040D01*
G01X3866134Y2485136D01*
G01X3869182Y2491486D01*
G01X3878326Y2494534D01*
G01X3890772Y2494534D01*
G01X3832606Y2494534D02*
G01X3832606Y2429764D01*
G01X3832606Y2494534D02*
G01X3804666Y2494534D01*
G01X3795522Y2491486D01*
G01X3792474Y2488438D01*
G01X3789172Y2482088D01*
G01X3789172Y2472944D01*
G01X3792474Y2466594D01*
G01X3795522Y2463546D01*
G01X3804666Y2460498D01*
G01X3832606Y2460498D01*
G01X3758946Y2482088D02*
G01X3752596Y2485136D01*
G01X3743452Y2494534D01*
G01X3743452Y2429764D01*
G01X6206428Y3684970D02*
G01X6209476Y3691066D01*
G01X6215826Y3697416D01*
G01X6221922Y3700464D01*
G01X6234368Y3700464D01*
G01X6240464Y3697416D01*
G01X6246560Y3691066D01*
G01X6249608Y3684970D01*
G01X6252656Y3675826D01*
G01X6252656Y3660332D01*
G01X6249608Y3650934D01*
G01X6246560Y3644838D01*
G01X6240464Y3638742D01*
G01X6234368Y3635694D01*
G01X6221922Y3635694D01*
G01X6215826Y3638742D01*
G01X6209476Y3644838D01*
G01X6206428Y3650934D01*
G01X6145214Y3700464D02*
G01X6176202Y3657284D01*
G01X6129720Y3657284D01*
G01X6145214Y3700464D02*
G01X6145214Y3635694D01*
G01X7802626Y3777234D02*
G01X7802626Y3712464D01*
G01X7802626Y3777234D02*
G01X7774940Y3777234D01*
G01X7765796Y3774186D01*
G01X7762494Y3771138D01*
G01X7759446Y3764788D01*
G01X7759446Y3758692D01*
G01X7762494Y3752596D01*
G01X7765796Y3749294D01*
G01X7774940Y3746246D01*
G01X7802626Y3746246D01*
G01X7781036Y3746246D02*
G01X7759446Y3712464D01*
G01X7725918Y3761740D02*
G01X7725918Y3764788D01*
G01X7722870Y3771138D01*
G01X7719822Y3774186D01*
G01X7713726Y3777234D01*
G01X7701280Y3777234D01*
G01X7695184Y3774186D01*
G01X7692136Y3771138D01*
G01X7689088Y3764788D01*
G01X7689088Y3758692D01*
G01X7692136Y3752596D01*
G01X7698232Y3743198D01*
G01X7729220Y3712464D01*
G01X7685786Y3712464D01*
G01X6029198Y3279140D02*
G01X6032246Y3285236D01*
G01X6038596Y3291586D01*
G01X6044692Y3294634D01*
G01X6057138Y3294634D01*
G01X6063234Y3291586D01*
G01X6069330Y3285236D01*
G01X6072378Y3279140D01*
G01X6075426Y3269996D01*
G01X6075426Y3254502D01*
G01X6072378Y3245104D01*
G01X6069330Y3239008D01*
G01X6063234Y3232912D01*
G01X6057138Y3229864D01*
G01X6044692Y3229864D01*
G01X6038596Y3232912D01*
G01X6032246Y3239008D01*
G01X6029198Y3245104D01*
G01X5992622Y3294634D02*
G01X5958840Y3294634D01*
G01X5977382Y3269996D01*
G01X5967984Y3269996D01*
G01X5961888Y3266694D01*
G01X5958840Y3263646D01*
G01X5955538Y3254502D01*
G01X5955538Y3248406D01*
G01X5958840Y3239008D01*
G01X5964936Y3232912D01*
G01X5974080Y3229864D01*
G01X5983478Y3229864D01*
G01X5992622Y3232912D01*
G01X5995670Y3235960D01*
G01X5998972Y3242056D01*
G01X9381998Y2517140D02*
G01X9385046Y2523236D01*
G01X9391396Y2529586D01*
G01X9397492Y2532634D01*
G01X9409938Y2532634D01*
G01X9416034Y2529586D01*
G01X9422130Y2523236D01*
G01X9425178Y2517140D01*
G01X9428226Y2507996D01*
G01X9428226Y2492502D01*
G01X9425178Y2483104D01*
G01X9422130Y2477008D01*
G01X9416034Y2470912D01*
G01X9409938Y2467864D01*
G01X9397492Y2467864D01*
G01X9391396Y2470912D01*
G01X9385046Y2477008D01*
G01X9381998Y2483104D01*
G01X9308338Y2532634D02*
G01X9339326Y2467864D01*
G01X9351772Y2532634D02*
G01X9308338Y2532634D01*
G01X9517126Y1910334D02*
G01X9517126Y1864106D01*
G01X9514078Y1854708D01*
G01X9507982Y1848612D01*
G01X9498838Y1845564D01*
G01X9492488Y1845564D01*
G01X9483344Y1848612D01*
G01X9476994Y1854708D01*
G01X9473946Y1864106D01*
G01X9473946Y1910334D01*
G01X9406636Y1900936D02*
G01X9409684Y1907286D01*
G01X9418828Y1910334D01*
G01X9425178Y1910334D01*
G01X9434322Y1907286D01*
G01X9440418Y1897888D01*
G01X9443720Y1882394D01*
G01X9443720Y1867154D01*
G01X9440418Y1854708D01*
G01X9434322Y1848612D01*
G01X9425178Y1845564D01*
G01X9422130Y1845564D01*
G01X9412732Y1848612D01*
G01X9406636Y1854708D01*
G01X9403588Y1864106D01*
G01X9403588Y1867154D01*
G01X9406636Y1876298D01*
G01X9412732Y1882394D01*
G01X9422130Y1885696D01*
G01X9425178Y1885696D01*
G01X9434322Y1882394D01*
G01X9440418Y1876298D01*
G01X9443720Y1867154D01*
G01X8844026Y2443734D02*
G01X8844026Y2378964D01*
G01X8844026Y2443734D02*
G01X8816340Y2443734D01*
G01X8807196Y2440686D01*
G01X8803894Y2437638D01*
G01X8800846Y2431288D01*
G01X8800846Y2425192D01*
G01X8803894Y2419096D01*
G01X8807196Y2415794D01*
G01X8816340Y2412746D01*
G01X8844026Y2412746D01*
G01X8822436Y2412746D02*
G01X8800846Y2378964D01*
G01X8733536Y2443734D02*
G01X8764270Y2443734D01*
G01X8767318Y2415794D01*
G01X8764270Y2419096D01*
G01X8755126Y2422144D01*
G01X8745728Y2422144D01*
G01X8736584Y2419096D01*
G01X8730488Y2412746D01*
G01X8727186Y2403602D01*
G01X8727186Y2397506D01*
G01X8730488Y2388108D01*
G01X8736584Y2382012D01*
G01X8745728Y2378964D01*
G01X8755126Y2378964D01*
G01X8764270Y2382012D01*
G01X8767318Y2385060D01*
G01X8770620Y2391156D01*
G01X8640826Y1351534D02*
G01X8640826Y1286764D01*
G01X8640826Y1351534D02*
G01X8613140Y1351534D01*
G01X8603996Y1348486D01*
G01X8600694Y1345438D01*
G01X8597646Y1339088D01*
G01X8597646Y1332992D01*
G01X8600694Y1326896D01*
G01X8603996Y1323594D01*
G01X8613140Y1320546D01*
G01X8640826Y1320546D01*
G01X8619236Y1320546D02*
G01X8597646Y1286764D01*
G01X8536432Y1351534D02*
G01X8567420Y1308354D01*
G01X8520938Y1308354D01*
G01X8536432Y1351534D02*
G01X8536432Y1286764D01*
G01X9656826Y2685034D02*
G01X9656826Y2620264D01*
G01X9656826Y2685034D02*
G01X9629140Y2685034D01*
G01X9619996Y2681986D01*
G01X9616694Y2678938D01*
G01X9613646Y2672588D01*
G01X9613646Y2666492D01*
G01X9616694Y2660396D01*
G01X9619996Y2657094D01*
G01X9629140Y2654046D01*
G01X9656826Y2654046D01*
G01X9635236Y2654046D02*
G01X9613646Y2620264D01*
G01X9583420Y2672588D02*
G01X9577070Y2675636D01*
G01X9567926Y2685034D01*
G01X9567926Y2620264D01*
G01X9519158Y2685034D02*
G01X9528302Y2681986D01*
G01X9534398Y2672588D01*
G01X9537700Y2657094D01*
G01X9537700Y2647950D01*
G01X9534398Y2632456D01*
G01X9528302Y2623312D01*
G01X9519158Y2620264D01*
G01X9512808Y2620264D01*
G01X9503664Y2623312D01*
G01X9497568Y2632456D01*
G01X9494266Y2647950D01*
G01X9494266Y2657094D01*
G01X9497568Y2672588D01*
G01X9503664Y2681986D01*
G01X9512808Y2685034D01*
G01X9519158Y2685034D01*
G01X7497826Y4450334D02*
G01X7497826Y4404106D01*
G01X7494778Y4394708D01*
G01X7488682Y4388612D01*
G01X7479538Y4385564D01*
G01X7473188Y4385564D01*
G01X7464044Y4388612D01*
G01X7457694Y4394708D01*
G01X7454646Y4404106D01*
G01X7454646Y4450334D01*
G01X7424420Y4437888D02*
G01X7418070Y4440936D01*
G01X7408926Y4450334D01*
G01X7408926Y4385564D01*
G01X8856726Y2862834D02*
G01X8856726Y2798064D01*
G01X8813546Y2862834D02*
G01X8856726Y2819654D01*
G01X8841486Y2834894D02*
G01X8813546Y2798064D01*
G01X8783320Y2850388D02*
G01X8776970Y2853436D01*
G01X8767826Y2862834D01*
G01X8767826Y2798064D01*
G01X5317998Y1666240D02*
G01X5321046Y1672336D01*
G01X5327396Y1678686D01*
G01X5333492Y1681734D01*
G01X5345938Y1681734D01*
G01X5352034Y1678686D01*
G01X5358130Y1672336D01*
G01X5361178Y1666240D01*
G01X5364226Y1657096D01*
G01X5364226Y1641602D01*
G01X5361178Y1632204D01*
G01X5358130Y1626108D01*
G01X5352034Y1620012D01*
G01X5345938Y1616964D01*
G01X5333492Y1616964D01*
G01X5327396Y1620012D01*
G01X5321046Y1626108D01*
G01X5317998Y1632204D01*
G01X5250688Y1681734D02*
G01X5281422Y1681734D01*
G01X5284470Y1653794D01*
G01X5281422Y1657096D01*
G01X5272278Y1660144D01*
G01X5262880Y1660144D01*
G01X5253736Y1657096D01*
G01X5247640Y1650746D01*
G01X5244338Y1641602D01*
G01X5244338Y1635506D01*
G01X5247640Y1626108D01*
G01X5253736Y1620012D01*
G01X5262880Y1616964D01*
G01X5272278Y1616964D01*
G01X5281422Y1620012D01*
G01X5284470Y1623060D01*
G01X5287772Y1629156D01*
G01X5129530Y5720334D02*
G01X5095494Y5720334D01*
G01X5114036Y5695696D01*
G01X5104892Y5695696D01*
G01X5098796Y5692394D01*
G01X5095494Y5689346D01*
G01X5092446Y5680202D01*
G01X5092446Y5674106D01*
G01X5095494Y5664708D01*
G01X5101844Y5658612D01*
G01X5110988Y5655564D01*
G01X5120386Y5655564D01*
G01X5129530Y5658612D01*
G01X5132578Y5661660D01*
G01X5135626Y5667756D01*
G01X5058918Y5670804D02*
G01X5062220Y5667756D01*
G01X5058918Y5664708D01*
G01X5055870Y5667756D01*
G01X5058918Y5670804D01*
G01X5019294Y5720334D02*
G01X4985512Y5720334D01*
G01X5004054Y5695696D01*
G01X4994656Y5695696D01*
G01X4988560Y5692394D01*
G01X4985512Y5689346D01*
G01X4982210Y5680202D01*
G01X4982210Y5674106D01*
G01X4985512Y5664708D01*
G01X4991608Y5658612D01*
G01X5000752Y5655564D01*
G01X5010150Y5655564D01*
G01X5019294Y5658612D01*
G01X5022342Y5661660D01*
G01X5025644Y5667756D01*
G01X4951984Y5720334D02*
G01X4927092Y5655564D01*
G01X4902454Y5720334D02*
G01X4927092Y5655564D01*
G01X5034026Y6050534D02*
G01X5009388Y5985764D01*
G01X4984750Y6050534D02*
G01X5009388Y5985764D01*
G01X4926584Y6041136D02*
G01X4926584Y5985764D01*
G01X4954524Y6013450D02*
G01X4898898Y6013450D01*
G01X5394198Y5869940D02*
G01X5397246Y5876036D01*
G01X5403596Y5882386D01*
G01X5409692Y5885434D01*
G01X5422138Y5885434D01*
G01X5428234Y5882386D01*
G01X5434330Y5876036D01*
G01X5437378Y5869940D01*
G01X5440426Y5860796D01*
G01X5440426Y5845302D01*
G01X5437378Y5835904D01*
G01X5434330Y5829808D01*
G01X5428234Y5823712D01*
G01X5422138Y5820664D01*
G01X5409692Y5820664D01*
G01X5403596Y5823712D01*
G01X5397246Y5829808D01*
G01X5394198Y5835904D01*
G01X5394198Y5845302D01*
G01X5409692Y5845302D02*
G01X5394198Y5845302D01*
G01X5363972Y5885434D02*
G01X5363972Y5820664D01*
G01X5363972Y5885434D02*
G01X5320538Y5820664D01*
G01X5320538Y5885434D02*
G01X5320538Y5820664D01*
G01X5290312Y5885434D02*
G01X5290312Y5820664D01*
G01X5290312Y5885434D02*
G01X5268722Y5885434D01*
G01X5259324Y5882386D01*
G01X5253228Y5876036D01*
G01X5250180Y5869940D01*
G01X5246878Y5860796D01*
G01X5246878Y5845302D01*
G01X5250180Y5835904D01*
G01X5253228Y5829808D01*
G01X5259324Y5823712D01*
G01X5268722Y5820664D01*
G01X5290312Y5820664D01*
G01X8031226Y4031234D02*
G01X8031226Y3966464D01*
G01X7957566Y4021836D02*
G01X7963916Y4028186D01*
G01X7973060Y4031234D01*
G01X7985506Y4031234D01*
G01X7994650Y4028186D01*
G01X8001000Y4021836D01*
G01X8001000Y4015740D01*
G01X7997698Y4009644D01*
G01X7994650Y4006596D01*
G01X7988554Y4003294D01*
G01X7970012Y3997198D01*
G01X7963916Y3994150D01*
G01X7960868Y3991102D01*
G01X7957566Y3985006D01*
G01X7957566Y3975608D01*
G01X7963916Y3969512D01*
G01X7973060Y3966464D01*
G01X7985506Y3966464D01*
G01X7994650Y3969512D01*
G01X8001000Y3975608D01*
G01X7927340Y4031234D02*
G01X7927340Y3966464D01*
G01X7927340Y4031234D02*
G01X7887208Y4031234D01*
G01X7927340Y4000246D02*
G01X7902448Y4000246D01*
G01X7927340Y3966464D02*
G01X7887208Y3966464D01*
G01X7835392Y4031234D02*
G01X7835392Y3966464D01*
G01X7856982Y4031234D02*
G01X7813548Y4031234D01*
G54D12*
G01X6382766Y525018D02*
G01X6396482Y518160D01*
G01X6410198Y504444D01*
G01X6417056Y490728D01*
G01X6423914Y469900D01*
G01X6423914Y435610D01*
G01X6417056Y415036D01*
G01X6410198Y401320D01*
G01X6396482Y387604D01*
G01X6382766Y380746D01*
G01X6355080Y380746D01*
G01X6341364Y387604D01*
G01X6327648Y401320D01*
G01X6320790Y415036D01*
G01X6313932Y435610D01*
G01X6313932Y469900D01*
G01X6320790Y490728D01*
G01X6327648Y504444D01*
G01X6341364Y518160D01*
G01X6355080Y525018D01*
G01X6382766Y525018D01*
G01X6250940Y476758D02*
G01X6250940Y332486D01*
G01X6250940Y456184D02*
G01X6237224Y469900D01*
G01X6223508Y476758D01*
G01X6202934Y476758D01*
G01X6188964Y469900D01*
G01X6175248Y456184D01*
G01X6168390Y435610D01*
G01X6168390Y421894D01*
G01X6175248Y401320D01*
G01X6188964Y387604D01*
G01X6202934Y380746D01*
G01X6223508Y380746D01*
G01X6237224Y387604D01*
G01X6250940Y401320D01*
G01X6105398Y435610D02*
G01X6022848Y435610D01*
G01X6022848Y449326D01*
G01X6029706Y463042D01*
G01X6036564Y469900D01*
G01X6050280Y476758D01*
G01X6071108Y476758D01*
G01X6084824Y469900D01*
G01X6098540Y456184D01*
G01X6105398Y435610D01*
G01X6105398Y421894D01*
G01X6098540Y401320D01*
G01X6084824Y387604D01*
G01X6071108Y380746D01*
G01X6050280Y380746D01*
G01X6036564Y387604D01*
G01X6022848Y401320D01*
G01X5959856Y476758D02*
G01X5959856Y380746D01*
G01X5959856Y449326D02*
G01X5939282Y469900D01*
G01X5925566Y476758D01*
G01X5904738Y476758D01*
G01X5891022Y469900D01*
G01X5884164Y449326D01*
G01X5884164Y380746D01*
G01X5780024Y525018D02*
G01X5793740Y518160D01*
G01X5807456Y504444D01*
G01X5814314Y490728D01*
G01X5821172Y469900D01*
G01X5821172Y435610D01*
G01X5814314Y415036D01*
G01X5807456Y401320D01*
G01X5793740Y387604D01*
G01X5780024Y380746D01*
G01X5752338Y380746D01*
G01X5738622Y387604D01*
G01X5724906Y401320D01*
G01X5718048Y415036D01*
G01X5711190Y435610D01*
G01X5711190Y469900D01*
G01X5718048Y490728D01*
G01X5724906Y504444D01*
G01X5738622Y518160D01*
G01X5752338Y525018D01*
G01X5780024Y525018D01*
G01X5648198Y476758D02*
G01X5607050Y380746D01*
G01X5565648Y476758D02*
G01X5607050Y380746D01*
G01X5502656Y435610D02*
G01X5420106Y435610D01*
G01X5420106Y449326D01*
G01X5426964Y463042D01*
G01X5433822Y469900D01*
G01X5447538Y476758D01*
G01X5468366Y476758D01*
G01X5482082Y469900D01*
G01X5495798Y456184D01*
G01X5502656Y435610D01*
G01X5502656Y421894D01*
G01X5495798Y401320D01*
G01X5482082Y387604D01*
G01X5468366Y380746D01*
G01X5447538Y380746D01*
G01X5433822Y387604D01*
G01X5420106Y401320D01*
G01X5357114Y476758D02*
G01X5357114Y380746D01*
G01X5357114Y449326D02*
G01X5336540Y469900D01*
G01X5322824Y476758D01*
G01X5301996Y476758D01*
G01X5288280Y469900D01*
G01X5281422Y449326D01*
G01X5281422Y380746D01*
G01X5115306Y490728D02*
G01X5122164Y504444D01*
G01X5135880Y518160D01*
G01X5149596Y525018D01*
G01X5177282Y525018D01*
G01X5190998Y518160D01*
G01X5204714Y504444D01*
G01X5211572Y490728D01*
G01X5218430Y469900D01*
G01X5218430Y435610D01*
G01X5211572Y415036D01*
G01X5204714Y401320D01*
G01X5190998Y387604D01*
G01X5177282Y380746D01*
G01X5149596Y380746D01*
G01X5135880Y387604D01*
G01X5122164Y401320D01*
G01X5115306Y415036D01*
G01X5052314Y525018D02*
G01X5052314Y380746D01*
G01X4955032Y476758D02*
G01X4968748Y469900D01*
G01X4982464Y456184D01*
G01X4989322Y435610D01*
G01X4989322Y421894D01*
G01X4982464Y401320D01*
G01X4968748Y387604D01*
G01X4955032Y380746D01*
G01X4934204Y380746D01*
G01X4920488Y387604D01*
G01X4906772Y401320D01*
G01X4899914Y421894D01*
G01X4899914Y435610D01*
G01X4906772Y456184D01*
G01X4920488Y469900D01*
G01X4934204Y476758D01*
G01X4955032Y476758D01*
G01X4754372Y456184D02*
G01X4768088Y469900D01*
G01X4781804Y476758D01*
G01X4802632Y476758D01*
G01X4816348Y469900D01*
G01X4830064Y456184D01*
G01X4836922Y435610D01*
G01X4836922Y421894D01*
G01X4830064Y401320D01*
G01X4816348Y387604D01*
G01X4802632Y380746D01*
G01X4781804Y380746D01*
G01X4768088Y387604D01*
G01X4754372Y401320D01*
G01X4691380Y525018D02*
G01X4691380Y380746D01*
G01X4622546Y476758D02*
G01X4691380Y408178D01*
G01X4663948Y435610D02*
G01X4615688Y380746D01*
G01X4398772Y476758D02*
G01X4357370Y380746D01*
G01X4316222Y476758D02*
G01X4357370Y380746D01*
G01X4253230Y497586D02*
G01X4239514Y504444D01*
G01X4218940Y525018D01*
G01X4218940Y380746D01*
G01X4149090Y415036D02*
G01X4155948Y408178D01*
G01X4149090Y401320D01*
G01X4142232Y408178D01*
G01X4149090Y415036D01*
G01X4038092Y525018D02*
G01X4058666Y518160D01*
G01X4072382Y497586D01*
G01X4079240Y463042D01*
G01X4079240Y442468D01*
G01X4072382Y408178D01*
G01X4058666Y387604D01*
G01X4038092Y380746D01*
G01X4024122Y380746D01*
G01X4003548Y387604D01*
G01X3989832Y408178D01*
G01X3982974Y442468D01*
G01X3982974Y463042D01*
G01X3989832Y497586D01*
G01X4003548Y518160D01*
G01X4024122Y525018D01*
G01X4038092Y525018D01*
G54D13*
G01X6431026Y303784D02*
G01X6431026Y196342D01*
G01X6431026Y252730D02*
G01X6420612Y262890D01*
G01X6410452Y267970D01*
G01X6394958Y267970D01*
G01X6384798Y262890D01*
G01X6374638Y252730D01*
G01X6369304Y237236D01*
G01X6369304Y227076D01*
G01X6374638Y211582D01*
G01X6384798Y201422D01*
G01X6394958Y196342D01*
G01X6410452Y196342D01*
G01X6420612Y201422D01*
G01X6431026Y211582D01*
G01X6323584Y267970D02*
G01X6292850Y196342D01*
G01X6262116Y267970D02*
G01X6292850Y196342D01*
G01X6303010Y175768D01*
G01X6313424Y165608D01*
G01X6323584Y160274D01*
G01X6328664Y160274D01*
G01X6106668Y303784D02*
G01X6106668Y196342D01*
G01X6106668Y303784D02*
G01X6070854Y303784D01*
G01X6055360Y298704D01*
G01X6045200Y288544D01*
G01X6040120Y278384D01*
G01X6035040Y262890D01*
G01X6035040Y237236D01*
G01X6040120Y221996D01*
G01X6045200Y211582D01*
G01X6055360Y201422D01*
G01X6070854Y196342D01*
G01X6106668Y196342D01*
G01X5994400Y237236D02*
G01X5932932Y237236D01*
G01X5932932Y247650D01*
G01X5938012Y257810D01*
G01X5943092Y262890D01*
G01X5953506Y267970D01*
G01X5968746Y267970D01*
G01X5979160Y262890D01*
G01X5989320Y252730D01*
G01X5994400Y237236D01*
G01X5994400Y227076D01*
G01X5989320Y211582D01*
G01X5979160Y201422D01*
G01X5968746Y196342D01*
G01X5953506Y196342D01*
G01X5943092Y201422D01*
G01X5932932Y211582D01*
G01X5892292Y267970D02*
G01X5892292Y196342D01*
G01X5892292Y247650D02*
G01X5877052Y262890D01*
G01X5866638Y267970D01*
G01X5851398Y267970D01*
G01X5840984Y262890D01*
G01X5835904Y247650D01*
G01X5835904Y196342D01*
G01X5795264Y267970D02*
G01X5795264Y196342D01*
G01X5795264Y247650D02*
G01X5780024Y262890D01*
G01X5769610Y267970D01*
G01X5754370Y267970D01*
G01X5743956Y262890D01*
G01X5738876Y247650D01*
G01X5738876Y196342D01*
G01X5698236Y303784D02*
G01X5693156Y298704D01*
G01X5688076Y303784D01*
G01X5693156Y309118D01*
G01X5698236Y303784D01*
G01X5693156Y267970D02*
G01X5693156Y196342D01*
G01X5591048Y252730D02*
G01X5596128Y262890D01*
G01X5611622Y267970D01*
G01X5626862Y267970D01*
G01X5642356Y262890D01*
G01X5647436Y252730D01*
G01X5642356Y242316D01*
G01X5632196Y237236D01*
G01X5606542Y232156D01*
G01X5596128Y227076D01*
G01X5591048Y216662D01*
G01X5591048Y211582D01*
G01X5596128Y201422D01*
G01X5611622Y196342D01*
G01X5626862Y196342D01*
G01X5642356Y201422D01*
G01X5647436Y211582D01*
G54D10*
G01X779526Y1529334D02*
G01X779526Y1464564D01*
G01X779526Y1529334D02*
G01X751840Y1529334D01*
G01X742696Y1526286D01*
G01X739394Y1523238D01*
G01X736346Y1516888D01*
G01X736346Y1507744D01*
G01X739394Y1501394D01*
G01X742696Y1498346D01*
G01X751840Y1495298D01*
G01X779526Y1495298D01*
G01X662686Y1519936D02*
G01X669036Y1526286D01*
G01X678180Y1529334D01*
G01X690626Y1529334D01*
G01X699770Y1526286D01*
G01X706120Y1519936D01*
G01X706120Y1513840D01*
G01X702818Y1507744D01*
G01X699770Y1504696D01*
G01X693674Y1501394D01*
G01X675132Y1495298D01*
G01X669036Y1492250D01*
G01X665988Y1489202D01*
G01X662686Y1483106D01*
G01X662686Y1473708D01*
G01X669036Y1467612D01*
G01X678180Y1464564D01*
G01X690626Y1464564D01*
G01X699770Y1467612D01*
G01X706120Y1473708D01*
G01X632460Y1529334D02*
G01X632460Y1483106D01*
G01X629158Y1473708D01*
G01X623062Y1467612D01*
G01X613918Y1464564D01*
G01X607568Y1464564D01*
G01X598424Y1467612D01*
G01X592328Y1473708D01*
G01X589026Y1483106D01*
G01X589026Y1529334D01*
G01X558800Y1516888D02*
G01X552450Y1519936D01*
G01X543306Y1529334D01*
G01X543306Y1464564D01*
G01X6913626Y3142234D02*
G01X6913626Y3077464D01*
G01X6913626Y3142234D02*
G01X6885940Y3142234D01*
G01X6876796Y3139186D01*
G01X6873494Y3136138D01*
G01X6870446Y3129788D01*
G01X6870446Y3123692D01*
G01X6873494Y3117596D01*
G01X6876796Y3114294D01*
G01X6885940Y3111246D01*
G01X6913626Y3111246D01*
G01X6892036Y3111246D02*
G01X6870446Y3077464D01*
G01X6800088Y3120644D02*
G01X6803136Y3111246D01*
G01X6809232Y3105150D01*
G01X6818630Y3102102D01*
G01X6821678Y3102102D01*
G01X6830822Y3105150D01*
G01X6836918Y3111246D01*
G01X6840220Y3120644D01*
G01X6840220Y3123692D01*
G01X6836918Y3132836D01*
G01X6830822Y3139186D01*
G01X6821678Y3142234D01*
G01X6818630Y3142234D01*
G01X6809232Y3139186D01*
G01X6803136Y3132836D01*
G01X6800088Y3120644D01*
G01X6800088Y3105150D01*
G01X6803136Y3089656D01*
G01X6809232Y3080512D01*
G01X6818630Y3077464D01*
G01X6824726Y3077464D01*
G01X6833870Y3080512D01*
G01X6836918Y3086608D01*
G04 Text End*

G04 PolygonModel Start*
G54D14*
G01X44107Y1588513D02*
G01X2585103Y1588513D01*
G01X2585103Y1588513D02*
G01X2585103Y6158502D01*
G01X2585103Y6158502D02*
G01X44107Y6158502D01*
G01X44107Y6158502D02*
G01X44107Y1588513D01*
G01X1066800Y545635D02*
G01X1143000Y545635D01*
G01X990600Y800567D02*
G01X914400Y800567D01*
G01X990600Y1055634D02*
G01X990600Y1079500D01*
G01X990600Y545635D02*
G01X990600Y800567D01*
G01X1066800Y290568D02*
G01X1066800Y266700D01*
G01X1066800Y266700D02*
G01X990600Y266700D01*
G01X990600Y266700D02*
G01X990600Y290568D01*
G01X1066800Y800567D02*
G01X1066800Y545635D01*
G01X990600Y1079500D02*
G01X1066800Y1079500D01*
G01X1066800Y1079500D02*
G01X1066800Y1055634D01*
G01X317500Y545635D02*
G01X393700Y545635D01*
G01X241300Y800567D02*
G01X165100Y800567D01*
G01X241300Y1055634D02*
G01X241300Y1079500D01*
G01X241300Y545635D02*
G01X241300Y800567D01*
G01X317500Y290568D02*
G01X317500Y266700D01*
G01X317500Y266700D02*
G01X241300Y266700D01*
G01X241300Y266700D02*
G01X241300Y290568D01*
G01X317500Y800567D02*
G01X317500Y545635D01*
G01X241300Y1079500D02*
G01X317500Y1079500D01*
G01X317500Y1079500D02*
G01X317500Y1055634D01*
G54D15*
G01X4149580Y966661D02*
G01X4290581Y966661D01*
G01X4290581Y785940D02*
G01X4149580Y785940D01*
G01X4134340Y801180D02*
G01X4134340Y951421D01*
G01X4511820Y966661D02*
G01X4370819Y966661D01*
G01X4370819Y785940D02*
G01X4511820Y785940D01*
G01X4527060Y801180D02*
G01X4527060Y951421D01*
G01X4149580Y785940D02*
G02X4134340Y801180I0J15240D01*
G01X4134340Y951421D02*
G02X4149580Y966661I15240J0D01*
G01X4511820Y785940D02*
G03X4527060Y801180I0J15240D01*
G01X4527060Y951421D02*
G03X4511820Y966661I-15240J0D01*
G01X3787920Y785940D02*
G01X3646919Y785940D01*
G01X3646919Y966661D02*
G01X3787920Y966661D01*
G01X3803160Y951421D02*
G01X3803160Y801180D01*
G01X3425680Y785940D02*
G01X3566681Y785940D01*
G01X3566681Y966661D02*
G01X3425680Y966661D01*
G01X3410440Y951421D02*
G01X3410440Y801180D01*
G01X3787920Y966661D02*
G02X3803160Y951421I0J-15240D01*
G01X3803160Y801180D02*
G02X3787920Y785940I-15240J0D01*
G01X3425680Y966661D02*
G03X3410440Y951421I0J-15240D01*
G01X3410440Y801180D02*
G03X3425680Y785940I15240J0D01*
G54D14*
G01X6410881Y3741257D02*
G01X6330884Y3741257D01*
G01X6466926Y3741303D02*
G01X6546924Y3741303D01*
G01X6410881Y3599289D02*
G01X6330884Y3599289D01*
G01X6466926Y3599337D02*
G01X6546924Y3599337D01*
G01X6299909Y3710275D02*
G01X6299909Y3630270D01*
G01X6577902Y3630323D02*
G01X6577902Y3710325D01*
G01X6546919Y3599337D02*
G03X6577902Y3630323I0J30983D01*
G01X6577902Y3710320D02*
G03X6546919Y3741303I-30983J0D01*
G01X6330889Y3741257D02*
G03X6299909Y3710275I3J-30983D01*
G01X6299909Y3630277D02*
G03X6330889Y3599289I30983J-5D01*
G01X6552413Y3439287D02*
G01X6450813Y3439287D01*
G01X6500800Y3489300D02*
G01X6500800Y3387700D01*
G36*
G01X6221400Y3454400D02*
G03X6221400Y3124200I157746J-165100D01*
G01X6221400Y3454400D01*
G37*
G54D15*
G01X6229220Y1644609D02*
G01X6365212Y1644609D01*
G01X6365212Y1644609D02*
G01X6365212Y1428791D01*
G01X6365212Y1428791D02*
G01X6229220Y1428791D01*
G01X6038980Y1644609D02*
G01X5902988Y1644609D01*
G01X5902988Y1644609D02*
G01X5902988Y1428791D01*
G01X5902988Y1428791D02*
G01X6038980Y1428791D01*
G54D14*
G01X7747000Y3187700D02*
G01X7747000Y3390900D01*
G01X7645400Y3289300D02*
G01X7848600Y3289300D01*
G01X7391400Y3390900D02*
G01X7391400Y2984500D01*
G01X7391400Y2984500D02*
G01X7391400Y2933700D01*
G01X7391400Y2933700D02*
G01X7442200Y2933700D01*
G01X7442200Y2933700D02*
G01X7442200Y2984500D01*
G01X7442200Y2984500D02*
G01X7543800Y2984500D01*
G01X7543800Y2984500D02*
G01X7543800Y2933700D01*
G01X7543800Y2933700D02*
G01X7696200Y2933700D01*
G01X7696200Y2933700D02*
G01X7696200Y2984500D01*
G01X7696200Y2984500D02*
G01X7797800Y2984500D01*
G01X7797800Y2984500D02*
G01X7797800Y2933700D01*
G01X7797800Y2933700D02*
G01X7950200Y2933700D01*
G01X7950200Y2933700D02*
G01X7950200Y2984500D01*
G01X7950200Y2984500D02*
G01X8051800Y2984500D01*
G01X8051800Y2984500D02*
G01X8051800Y2933700D01*
G01X8051800Y2933700D02*
G01X8102600Y2933700D01*
G01X8102600Y2933700D02*
G01X8102600Y2984500D01*
G01X8102600Y2984500D02*
G01X8102600Y3340100D01*
G01X8102600Y3340100D02*
G01X8102600Y3644900D01*
G01X8102600Y3644900D02*
G01X7391400Y3644900D01*
G01X7391400Y3644900D02*
G01X7391400Y3340100D01*
G01X8001000Y3581400D02*
G02X8000873Y3566161I-127J-7619D01*
G02X8000746Y3581400I0J7620D01*
G01X7747000Y3402838D02*
G02X7745984Y3175658I-1016J-113588D01*
G02X7744968Y3402838I0J113592D01*
G54D15*
G01X4532399Y1254559D02*
G01X4533900Y1079500D01*
G01X4533900Y1079500D02*
G01X3390900Y1079500D01*
G01X3390900Y1079500D02*
G01X3392401Y1254559D01*
G01X3392401Y1387041D02*
G01X3390900Y1562100D01*
G01X3390900Y1562100D02*
G01X4533900Y1562100D01*
G01X4533900Y1562100D02*
G01X4532399Y1387041D01*
G01X4532399Y1254559D02*
G01X4533900Y1079500D01*
G01X4533900Y1079500D02*
G01X3390900Y1079500D01*
G01X3390900Y1079500D02*
G01X3392401Y1254559D01*
G01X3392401Y1387041D02*
G01X3390900Y1562100D01*
G01X3390900Y1562100D02*
G01X4533900Y1562100D01*
G01X4533900Y1562100D02*
G01X4532399Y1387041D01*
G54D14*
G01X5001181Y1721957D02*
G01X4921184Y1721957D01*
G01X5057226Y1722003D02*
G01X5137224Y1722003D01*
G01X5001181Y1579989D02*
G01X4921184Y1579989D01*
G01X5057226Y1580037D02*
G01X5137224Y1580037D01*
G01X4890209Y1690975D02*
G01X4890209Y1610970D01*
G01X5168202Y1611023D02*
G01X5168202Y1691025D01*
G01X5137219Y1580037D02*
G03X5168202Y1611023I0J30983D01*
G01X5168202Y1691020D02*
G03X5137219Y1722003I-30983J0D01*
G01X4921189Y1721957D02*
G03X4890209Y1690975I3J-30983D01*
G01X4890209Y1610977D02*
G03X4921189Y1579989I30983J-5D01*
G01X5320513Y1356487D02*
G01X5218913Y1356487D01*
G01X5268900Y1406500D02*
G01X5268900Y1304900D01*
G36*
G01X4989500Y1371600D02*
G03X4989500Y1041400I157746J-165100D01*
G01X4989500Y1371600D01*
G37*
G54D15*
G01X8691740Y1519149D02*
G01X8691740Y1383157D01*
G01X8691740Y1383157D02*
G01X8475922Y1383157D01*
G01X8475922Y1383157D02*
G01X8475922Y1519149D01*
G01X8691740Y1709390D02*
G01X8691740Y1845381D01*
G01X8691740Y1845381D02*
G01X8475922Y1845381D01*
G01X8475922Y1845381D02*
G01X8475922Y1709390D01*
G01X8475922Y2306290D02*
G01X8475922Y2442281D01*
G01X8475922Y2442281D02*
G01X8691740Y2442281D01*
G01X8691740Y2442281D02*
G01X8691740Y2306290D01*
G01X8475922Y2116049D02*
G01X8475922Y1980057D01*
G01X8475922Y1980057D02*
G01X8691740Y1980057D01*
G01X8691740Y1980057D02*
G01X8691740Y2116049D01*
G01X8853279Y2120641D02*
G01X8853279Y1816359D01*
G01X8853279Y1816359D02*
G01X9358521Y1816359D01*
G01X9358521Y1816359D02*
G01X9358521Y2120641D01*
G01X9358521Y2120641D02*
G01X8853279Y2120641D01*
G54D14*
G01X9146738Y2434113D02*
G01X9226735Y2434113D01*
G01X9090693Y2434067D02*
G01X9010696Y2434067D01*
G01X9146738Y2576081D02*
G01X9226735Y2576081D01*
G01X9090693Y2576033D02*
G01X9010696Y2576033D01*
G01X9257711Y2465096D02*
G01X9257711Y2545101D01*
G01X8979718Y2545047D02*
G01X8979718Y2465045D01*
G01X9010701Y2576033D02*
G03X8979718Y2545047I0J-30983D01*
G01X8979718Y2465050D02*
G03X9010701Y2434067I30983J0D01*
G01X9226730Y2434113D02*
G03X9257711Y2465096I-3J30983D01*
G01X9257711Y2545093D02*
G03X9226730Y2576081I-30983J5D01*
G54D15*
G01X8055541Y2406780D02*
G01X8055541Y2270788D01*
G01X8055541Y2270788D02*
G01X7839723Y2270788D01*
G01X7839723Y2270788D02*
G01X7839723Y2406780D01*
G01X8055541Y2597020D02*
G01X8055541Y2733012D01*
G01X8055541Y2733012D02*
G01X7839723Y2733012D01*
G01X7839723Y2733012D02*
G01X7839723Y2597020D01*
G01X7766009Y2406780D02*
G01X7766009Y2270788D01*
G01X7766009Y2270788D02*
G01X7550191Y2270788D01*
G01X7550191Y2270788D02*
G01X7550191Y2406780D01*
G01X7766009Y2597020D02*
G01X7766009Y2733012D01*
G01X7766009Y2733012D02*
G01X7550191Y2733012D01*
G01X7550191Y2733012D02*
G01X7550191Y2597020D01*
G01X6889709Y476380D02*
G01X6889709Y340388D01*
G01X6889709Y340388D02*
G01X6673891Y340388D01*
G01X6673891Y340388D02*
G01X6673891Y476380D01*
G01X6889709Y666620D02*
G01X6889709Y802612D01*
G01X6889709Y802612D02*
G01X6673891Y802612D01*
G01X6673891Y802612D02*
G01X6673891Y666620D01*
G01X7169109Y3003680D02*
G01X7169109Y2867688D01*
G01X7169109Y2867688D02*
G01X6953291Y2867688D01*
G01X6953291Y2867688D02*
G01X6953291Y3003680D01*
G01X7169109Y3193920D02*
G01X7169109Y3329912D01*
G01X7169109Y3329912D02*
G01X6953291Y3329912D01*
G01X6953291Y3329912D02*
G01X6953291Y3193920D01*
G01X9467891Y2431920D02*
G01X9467891Y2567912D01*
G01X9467891Y2567912D02*
G01X9683709Y2567912D01*
G01X9683709Y2567912D02*
G01X9683709Y2431920D01*
G01X9467891Y2241680D02*
G01X9467891Y2105688D01*
G01X9467891Y2105688D02*
G01X9683709Y2105688D01*
G01X9683709Y2105688D02*
G01X9683709Y2241680D01*
G54D14*
G01X2705887Y1005713D02*
G01X2807487Y1005713D01*
G01X2757500Y955700D02*
G01X2757500Y1057300D01*
G36*
G01X3036900Y990600D02*
G03X3036900Y1320800I-157746J165100D01*
G01X3036900Y990600D01*
G37*
G54D15*
G01X6751015Y2371926D02*
G01X6751015Y2196661D01*
G01X6751015Y2196661D02*
G01X3205782Y2196661D01*
G01X3205782Y2196661D02*
G01X3205782Y2730939D01*
G01X3205782Y2730939D02*
G01X6751015Y2730939D01*
G01X6751015Y2730939D02*
G01X6751015Y2555674D01*
G01X6751016Y2371925D02*
G02X6751016Y2555675I0J91875D01*
G54D14*
G01X8580392Y5982612D02*
G01X8580392Y2932720D01*
G01X9753882Y4676442D02*
G01X9537675Y4676442D01*
G01X9537675Y4676442D02*
G01X9537675Y4241800D01*
G01X9537675Y4241800D02*
G01X9753882Y4241800D01*
G01X8153880Y5982716D02*
G01X8153880Y2932720D01*
G01X9423880Y5982698D02*
G01X9423880Y2932702D01*
G01X9753882Y5982716D02*
G01X9753882Y2932720D01*
G01X8153880Y5982612D02*
G01X9529948Y5982612D01*
G01X9627799Y5982612D02*
G01X9753882Y5982612D01*
G01X8153880Y2932720D02*
G01X9530154Y2932720D01*
G01X9627593Y2932720D02*
G01X9753882Y2932720D01*
G01X1841500Y1854200D02*
G01X1841500Y1571464D01*
G01X1928190Y1490173D01*
G01X1928190Y747574D01*
G01X1841500Y708028D01*
G01X1841500Y330200D01*
G01X3873500Y330200D01*
G01X3873500Y1854200D01*
G01X1841500Y1854200D01*

G04 Rect Start*
G01X5809101Y4076821D02*
G01X5809101Y4788021D01*
G01X7359111Y4788021D01*
G01X7359111Y4076821D01*
G01X5809101Y4076821D01*
G01X3047900Y1934900D02*
G01X2747900Y1934900D01*
G01X2747900Y3484900D01*
G01X3047900Y3484900D01*
G01X3047900Y1934900D01*
G01X9251950Y3860800D02*
G01X9340850Y3860800D01*
G01X9340850Y3073400D01*
G01X9251950Y3073400D01*
G01X9251950Y3860800D01*
G01X8658301Y5825007D02*
G01X8747201Y5825007D01*
G01X8747201Y5037607D01*
G01X8658301Y5037607D01*
G01X8658301Y5825007D01*
G01X3189097Y5309591D02*
G01X3999103Y5309591D01*
G01X3999103Y4799584D01*
G01X3189097Y4799584D01*
G01X3189097Y5309591D01*
G04 Rect End*

G04 Circle Start*
G01X5865591Y4724521D02*
G03X5890991Y4724521I12700J0D01*
G03X5865591Y4724521I-12700J0D01*
G54D12*
G01X6150788Y3289300D02*
G03X6650812Y3289300I250012J0D01*
G03X6150788Y3289300I-250012J0D01*
G01X4918888Y1206500D02*
G03X5418912Y1206500I250012J0D01*
G03X4918888Y1206500I-250012J0D01*
G01X8900389Y2045411D02*
G03X8930411Y2045411I15011J0D01*
G03X8900389Y2045411I-15011J0D01*
G01X8825738Y2245741D02*
G03X8855761Y2245741I15011J0D01*
G03X8825738Y2245741I-15011J0D01*
G01X2607488Y1155700D02*
G03X3107512Y1155700I250012J0D01*
G03X2607488Y1155700I-250012J0D01*
G54D17*
G01X6771640Y2036064D02*
G03X6835648Y2036064I32004J0D01*
G03X6771640Y2036064I-32004J0D01*
G04 Circle End*

M02*

