G04 Layer: TopPasteMaskLayer*
G04 EasyEDA Pro v2.2.43.4, 2025-12-14 11:37:12*
G04 Gerber Generator version 0.3*
G04 Scale: 100 percent, Rotated: No, Reflected: No*
G04 Dimensions in millimeters*
G04 Leading zeros omitted, absolute positions, 4 integers and 5 decimals*
G04 Generated by one-click*
%FSLAX45Y45*%
%MOMM*%
%ADD10R,0.8X0.9*%
%ADD11R,2.0X2.0*%
%ADD12R,1.25001X0.7*%
%ADD13R,1.4X2.49999*%
%ADD14R,1.7X1.4*%
%ADD15R,2.34X3.59999*%
%ADD16R,2.5091X1.1*%
%ADD17R,2.49999X1.1*%
%ADD18R,2.49999X1.5*%
G75*


G04 PolygonModel Start*
G36*
G01X826651Y3163700D02*
G01X862782Y3163700D01*
G01X872782Y3153700D01*
G01X872782Y3132643D01*
G01X882782Y3122643D01*
G01X920618Y3122643D01*
G01X930618Y3132643D01*
G01X930618Y3153700D01*
G01X940618Y3163700D01*
G01X976749Y3163700D01*
G01X986749Y3153700D01*
G01X986749Y3052948D01*
G01X976749Y3042948D01*
G01X826651Y3042948D01*
G01X816651Y3052948D01*
G01X816651Y3153700D01*
G01X826651Y3163700D01*
G37*
G36*
G01X826651Y3338700D02*
G01X862782Y3338700D01*
G01X872782Y3348700D01*
G01X872782Y3369757D01*
G01X882782Y3379757D01*
G01X920618Y3379757D01*
G01X930618Y3369757D01*
G01X930618Y3348700D01*
G01X940618Y3338700D01*
G01X976749Y3338700D01*
G01X986749Y3348700D01*
G01X986749Y3449452D01*
G01X976749Y3459452D01*
G01X826651Y3459452D01*
G01X816651Y3449452D01*
G01X816651Y3348700D01*
G01X826651Y3338700D01*
G37*
G36*
G01X1283851Y3163700D02*
G01X1319982Y3163700D01*
G01X1329982Y3153700D01*
G01X1329982Y3132643D01*
G01X1339982Y3122643D01*
G01X1377818Y3122643D01*
G01X1387818Y3132643D01*
G01X1387818Y3153700D01*
G01X1397818Y3163700D01*
G01X1433949Y3163700D01*
G01X1443949Y3153700D01*
G01X1443949Y3052948D01*
G01X1433949Y3042948D01*
G01X1283851Y3042948D01*
G01X1273851Y3052948D01*
G01X1273851Y3153700D01*
G01X1283851Y3163700D01*
G37*
G36*
G01X1283851Y3338700D02*
G01X1319982Y3338700D01*
G01X1329982Y3348700D01*
G01X1329982Y3369757D01*
G01X1339982Y3379757D01*
G01X1377818Y3379757D01*
G01X1387818Y3369757D01*
G01X1387818Y3348700D01*
G01X1397818Y3338700D01*
G01X1433949Y3338700D01*
G01X1443949Y3348700D01*
G01X1443949Y3449452D01*
G01X1433949Y3459452D01*
G01X1283851Y3459452D01*
G01X1273851Y3449452D01*
G01X1273851Y3348700D01*
G01X1283851Y3338700D01*
G37*
G36*
G01X1633358Y5719922D02*
G01X1669490Y5719922D01*
G01X1679490Y5709922D01*
G01X1679490Y5688865D01*
G01X1689490Y5678865D01*
G01X1727326Y5678865D01*
G01X1737326Y5688865D01*
G01X1737326Y5709922D01*
G01X1747326Y5719922D01*
G01X1783457Y5719922D01*
G01X1793457Y5709922D01*
G01X1793457Y5609170D01*
G01X1783457Y5599170D01*
G01X1633358Y5599170D01*
G01X1623358Y5609170D01*
G01X1623358Y5709922D01*
G01X1633358Y5719922D01*
G37*
G36*
G01X1633358Y5894922D02*
G01X1669490Y5894922D01*
G01X1679490Y5904922D01*
G01X1679490Y5925979D01*
G01X1689490Y5935979D01*
G01X1727326Y5935979D01*
G01X1737326Y5925979D01*
G01X1737326Y5904922D01*
G01X1747326Y5894922D01*
G01X1783457Y5894922D01*
G01X1793457Y5904922D01*
G01X1793457Y6005674D01*
G01X1783457Y6015674D01*
G01X1633358Y6015674D01*
G01X1623358Y6005674D01*
G01X1623358Y5904922D01*
G01X1633358Y5894922D01*
G37*
G36*
G01X1874658Y5718263D02*
G01X1910790Y5718263D01*
G01X1920790Y5708263D01*
G01X1920790Y5687206D01*
G01X1930790Y5677206D01*
G01X1968626Y5677206D01*
G01X1978626Y5687206D01*
G01X1978626Y5708263D01*
G01X1988626Y5718263D01*
G01X2024757Y5718263D01*
G01X2034757Y5708263D01*
G01X2034757Y5607511D01*
G01X2024757Y5597511D01*
G01X1874658Y5597511D01*
G01X1864658Y5607511D01*
G01X1864658Y5708263D01*
G01X1874658Y5718263D01*
G37*
G36*
G01X1874658Y5893264D02*
G01X1910790Y5893264D01*
G01X1920790Y5903264D01*
G01X1920790Y5924320D01*
G01X1930790Y5934320D01*
G01X1968626Y5934320D01*
G01X1978626Y5924320D01*
G01X1978626Y5903264D01*
G01X1988626Y5893264D01*
G01X2024757Y5893264D01*
G01X2034757Y5903264D01*
G01X2034757Y6004015D01*
G01X2024757Y6014015D01*
G01X1874658Y6014015D01*
G01X1864658Y6004015D01*
G01X1864658Y5903264D01*
G01X1874658Y5893264D01*
G37*
G36*
G01X2115958Y5716604D02*
G01X2152090Y5716604D01*
G01X2162090Y5706604D01*
G01X2162090Y5685548D01*
G01X2172090Y5675548D01*
G01X2209926Y5675548D01*
G01X2219926Y5685548D01*
G01X2219926Y5706604D01*
G01X2229926Y5716604D01*
G01X2266057Y5716604D01*
G01X2276057Y5706604D01*
G01X2276057Y5605853D01*
G01X2266057Y5595853D01*
G01X2115958Y5595853D01*
G01X2105958Y5605853D01*
G01X2105958Y5706604D01*
G01X2115958Y5716604D01*
G37*
G36*
G01X2115958Y5891605D02*
G01X2152090Y5891605D01*
G01X2162090Y5901605D01*
G01X2162090Y5922662D01*
G01X2172090Y5932662D01*
G01X2209926Y5932662D01*
G01X2219926Y5922662D01*
G01X2219926Y5901605D01*
G01X2229926Y5891605D01*
G01X2266057Y5891605D01*
G01X2276057Y5901605D01*
G01X2276057Y6002357D01*
G01X2266057Y6012357D01*
G01X2115958Y6012357D01*
G01X2105958Y6002357D01*
G01X2105958Y5901605D01*
G01X2115958Y5891605D01*
G37*
G36*
G01X7772141Y5108427D02*
G01X7808272Y5108427D01*
G01X7818272Y5098427D01*
G01X7818272Y5077370D01*
G01X7828272Y5067370D01*
G01X7866108Y5067370D01*
G01X7876108Y5077370D01*
G01X7876108Y5098427D01*
G01X7886108Y5108427D01*
G01X7922240Y5108427D01*
G01X7932240Y5098427D01*
G01X7932240Y4997675D01*
G01X7922240Y4987675D01*
G01X7772141Y4987675D01*
G01X7762141Y4997675D01*
G01X7762141Y5098427D01*
G01X7772141Y5108427D01*
G37*
G36*
G01X7772141Y5283428D02*
G01X7808272Y5283428D01*
G01X7818272Y5293428D01*
G01X7818272Y5314484D01*
G01X7828272Y5324484D01*
G01X7866108Y5324484D01*
G01X7876108Y5314484D01*
G01X7876108Y5293428D01*
G01X7886108Y5283428D01*
G01X7922240Y5283428D01*
G01X7932240Y5293428D01*
G01X7932240Y5394179D01*
G01X7922240Y5404179D01*
G01X7772141Y5404179D01*
G01X7762141Y5394179D01*
G01X7762141Y5293428D01*
G01X7772141Y5283428D01*
G37*
G36*
G01X6526400Y5779651D02*
G01X6526400Y5815782D01*
G01X6536400Y5825782D01*
G01X6557457Y5825782D01*
G01X6567457Y5835782D01*
G01X6567457Y5873618D01*
G01X6557457Y5883618D01*
G01X6536400Y5883618D01*
G01X6526400Y5893618D01*
G01X6526400Y5929749D01*
G01X6536400Y5939749D01*
G01X6637152Y5939749D01*
G01X6647152Y5929749D01*
G01X6647152Y5779651D01*
G01X6637152Y5769651D01*
G01X6536400Y5769651D01*
G01X6526400Y5779651D01*
G37*
G36*
G01X6351400Y5779651D02*
G01X6351400Y5815782D01*
G01X6341400Y5825782D01*
G01X6320343Y5825782D01*
G01X6310343Y5835782D01*
G01X6310343Y5873618D01*
G01X6320343Y5883618D01*
G01X6341400Y5883618D01*
G01X6351400Y5893618D01*
G01X6351400Y5929749D01*
G01X6341400Y5939749D01*
G01X6240648Y5939749D01*
G01X6230648Y5929749D01*
G01X6230648Y5779651D01*
G01X6240648Y5769651D01*
G01X6341400Y5769651D01*
G01X6351400Y5779651D01*
G37*
G36*
G01X1205349Y3338700D02*
G01X1169218Y3338700D01*
G01X1159218Y3348700D01*
G01X1159218Y3369757D01*
G01X1149218Y3379757D01*
G01X1111382Y3379757D01*
G01X1101382Y3369757D01*
G01X1101382Y3348700D01*
G01X1091382Y3338700D01*
G01X1055251Y3338700D01*
G01X1045251Y3348700D01*
G01X1045251Y3449452D01*
G01X1055251Y3459452D01*
G01X1205349Y3459452D01*
G01X1215349Y3449452D01*
G01X1215349Y3348700D01*
G01X1205349Y3338700D01*
G37*
G36*
G01X1205349Y3163700D02*
G01X1169218Y3163700D01*
G01X1159218Y3153700D01*
G01X1159218Y3132643D01*
G01X1149218Y3122643D01*
G01X1111382Y3122643D01*
G01X1101382Y3132643D01*
G01X1101382Y3153700D01*
G01X1091382Y3163700D01*
G01X1055251Y3163700D01*
G01X1045251Y3153700D01*
G01X1045251Y3052948D01*
G01X1055251Y3042948D01*
G01X1205349Y3042948D01*
G01X1215349Y3052948D01*
G01X1215349Y3153700D01*
G01X1205349Y3163700D01*
G37*

G04 Pad Start*
G54D10*
G01X2302634Y3484765D03*
G01X2162630Y3484765D03*
G54D11*
G01X8363208Y4931856D03*
G01X8363208Y4491877D03*
G54D12*
G01X7799400Y4781296D03*
G01X7799400Y4591304D03*
G01X7999400Y4686300D03*
G54D13*
G01X898639Y5276266D03*
G01X1098639Y5276240D03*
G01X1298639Y5276266D03*
G01X1498638Y5276190D03*
G01X1698638Y5276266D03*
G01X1898637Y5276342D03*
G01X2098637Y5276215D03*
G01X2298637Y5276063D03*
G54D14*
G01X2428735Y5020869D03*
G01X2428659Y4820869D03*
G01X2428659Y4620946D03*
G01X2428659Y4420870D03*
G01X2428608Y4220997D03*
G01X2428761Y4021201D03*
G54D13*
G01X2298637Y3766134D03*
G01X2098637Y3766058D03*
G01X1898637Y3766058D03*
G01X1698638Y3766058D03*
G01X1498638Y3766058D03*
G01X1298639Y3766058D03*
G01X1098639Y3766058D03*
G01X898639Y3766058D03*
G54D15*
G01X4335595Y5765797D03*
G54D17*
G01X3741590Y5535800D03*
G01X3741590Y5765797D03*
G01X3741590Y5995794D03*
G54D18*
G01X7821399Y5854700D03*
G01X7821399Y5600700D03*
G01X6961401Y5600700D03*
G01X6961401Y5854700D03*
G04 Pad End*

M02*

